<?xml version="1.0" encoding="UTF-8"?>
<svg version="1.1" xmlns="http://www.w3.org/2000/svg" width="1080" height="1080">
<path d="M0 0 C356.4 0 712.8 0 1080 0 C1080 356.4 1080 712.8 1080 1080 C723.6 1080 367.2 1080 0 1080 C0 723.6 0 367.2 0 0 Z " fill="#000000" transform="translate(0,0)"/>
<path d="M0 0 C356.4 0 712.8 0 1080 0 C1080 356.4 1080 712.8 1080 1080 C723.6 1080 367.2 1080 0 1080 C0 723.6 0 367.2 0 0 Z M126.625 119.1875 C125.83351563 119.90292969 125.04203125 120.61835937 124.2265625 121.35546875 C117.70499363 129.10126195 117.42448579 135.77244404 117.49663544 145.57807827 C117.4924592 146.96267061 117.48653145 148.34725857 117.47901797 149.73183683 C117.4634429 153.53909424 117.47276046 157.34594586 117.48612978 161.15319666 C117.4962738 165.2942433 117.48323805 169.43522758 117.47315645 173.57626539 C117.45870229 180.83483223 117.45915246 188.09328008 117.46934509 195.35185242 C117.4844607 206.14554657 117.47674752 216.93914016 117.46451186 227.73283361 C117.44343398 247.00940961 117.44528045 266.28593262 117.45682751 285.56251368 C117.46688339 302.43222573 117.46951951 319.30191834 117.46473694 336.17163277 C117.4644314 337.28994493 117.46412586 338.40825708 117.46381106 339.56045749 C117.46256574 344.09987924 117.46129214 348.63930099 117.459972 353.17872272 C117.44773129 395.77704491 117.45883717 438.37533332 117.48035959 480.97365029 C117.49934123 518.83100305 117.49764514 556.688302 117.47851562 594.5456543 C117.45710291 637.06375742 117.44860064 679.58183069 117.46096468 722.09993845 C117.46224758 726.63147612 117.46349894 731.16301379 117.46473694 735.69455147 C117.46505325 736.81035825 117.46536956 737.92616502 117.46569545 739.07578413 C117.47024787 755.93541291 117.4649195 772.79502013 117.45481873 789.65464592 C117.44339211 808.82304844 117.44621869 827.99138963 117.4679417 847.15978449 C117.47970195 857.8914216 117.48043188 868.62292593 117.465357 879.35455965 C117.4564016 886.51918185 117.46194404 893.68369737 117.47937608 900.84830374 C117.48890899 904.9329543 117.49210815 909.01734064 117.47775215 913.10198306 C117.46482177 916.81884556 117.47033259 920.53520972 117.49047479 924.25203596 C117.49639589 926.21660256 117.48273922 928.18119849 117.46825767 930.14572063 C117.54392241 939.03423755 119.15326641 946.74821904 125.24609375 953.5859375 C131.97024776 959.00719307 139.98993945 962.12316454 148.55490112 962.1276505 C149.6946486 962.13066647 150.83439608 962.13368244 152.00868136 962.1367898 C153.26378038 962.13502033 154.5188794 962.13325086 155.81201172 962.13142776 C157.16203635 962.13307724 158.5120605 962.13516344 159.86208385 962.13764787 C163.59191635 962.14322641 167.32172594 962.14253993 171.05156128 962.14087028 C175.10189012 962.14014067 179.15221242 962.14515861 183.20253849 962.1494453 C191.24495743 962.15703536 199.28736974 962.15921887 207.32979188 962.15977435 C216.95940554 962.16068701 226.58901303 962.16735165 236.21862403 962.17412117 C259.4961877 962.19019416 282.77375073 962.19608602 306.05131895 962.20086992 C317.06054257 962.20320466 328.06976565 962.20680719 339.07898886 962.2105653 C376.75517836 962.22340222 414.43136756 962.23412108 452.1075592 962.2375679 C454.47343928 962.23778954 456.83931935 962.23801132 459.20519942 962.23823325 C461.57684179 962.23845389 463.94848416 962.23867438 466.32012653 962.2388947 C471.07816378 962.23933726 475.83620103 962.23978437 480.59423828 962.24023438 C482.36381816 962.24039846 482.36381816 962.24039846 484.16914712 962.24056586 C522.42347756 962.24419667 560.67778906 962.26011689 598.93211225 962.28342474 C639.36425983 962.30801452 679.79639658 962.32174036 720.22855186 962.32293582 C724.66612117 962.32310728 729.10369047 962.32332271 733.54125977 962.32357025 C735.18027519 962.3236539 735.18027519 962.3236539 736.85240205 962.32373925 C754.44598312 962.32489047 772.03954477 962.33591861 789.63311928 962.35045731 C807.31420012 962.36481575 824.99525604 962.36806299 842.67634112 962.36001733 C853.18291158 962.35555791 863.68940163 962.35943416 874.19596154 962.37525584 C881.21451976 962.38499774 888.23302159 962.38383511 895.25157928 962.37381961 C899.25039208 962.36842188 903.24905035 962.36773579 907.24785042 962.38032833 C910.89033682 962.39170299 914.5325436 962.389104 918.17502052 962.37566125 C920.09263248 962.37210133 922.01025489 962.38317258 923.92783397 962.39495254 C935.38485634 962.32582068 946.13464531 960.77535207 955 953 C960.05524911 947.4986995 962.24864876 941.58738165 962.25299966 934.08309472 C962.25851915 932.91345966 962.26403864 931.7438246 962.26972538 930.53874606 C962.26561475 929.2604838 962.26150411 927.98222155 962.25726891 926.66522408 C962.25996277 925.28266435 962.26353087 923.90010611 962.26789337 922.51755065 C962.27736222 918.70671498 962.27434723 914.89597476 962.26933783 911.08513437 C962.26607546 906.94359879 962.27435018 902.80208381 962.28115618 898.66055477 C962.29147304 891.39806325 962.29429705 884.1355984 962.29224396 876.87310028 C962.28919837 866.07356733 962.29750808 855.27406396 962.30799321 844.47453675 C962.32735329 824.06626425 962.33296216 803.65800178 962.33410732 783.24972118 C962.33502571 767.49287344 962.33913875 751.73602965 962.34550858 735.9791832 C962.3473036 731.44685678 962.34908323 726.91453036 962.35085833 722.38220394 C962.35130043 721.25552167 962.35174252 720.1288394 962.35219802 718.96801525 C962.36450939 687.26912889 962.37239883 655.57024391 962.37151146 623.87135506 C962.3714803 622.67580181 962.37144914 621.48024856 962.37141704 620.24846643 C962.37125082 614.18862327 962.37105274 608.12878012 962.37084763 602.06893696 C962.37080774 600.86538533 962.37076785 599.66183369 962.37072675 598.4218108 C962.37064587 595.98793596 962.37056228 593.55406112 962.37047596 591.12018627 C962.36925013 553.24303202 962.38426838 515.36591355 962.41162109 477.48876953 C962.44232378 434.95494702 962.45955471 392.42114802 962.45769465 349.88731372 C962.45754538 345.35435859 962.45744797 340.82140347 962.45738602 336.28844833 C962.45736271 335.17228113 962.4573394 334.05611393 962.45731538 332.90612348 C962.45725377 314.92318735 962.47004001 296.94028223 962.48725055 278.95735533 C962.50418136 260.89346974 962.50620088 242.82962965 962.4930319 224.76574053 C962.4856259 214.02723259 962.48934986 203.28886262 962.50891658 192.55036922 C962.52087663 185.38238204 962.51837 178.21449527 962.50397559 171.04651278 C962.49617888 166.95907687 962.49475711 162.8719088 962.51089029 158.78449132 C962.52543817 155.06625877 962.52158775 151.34851733 962.50304256 147.63030671 C962.49797399 145.66256861 962.51253641 143.69480985 962.52788812 141.72712511 C962.45811751 133.10170531 961.15441458 126.57625553 954.8125 120.25 C948.60096067 114.38652106 940.82207194 111.87672525 932.4107374 111.8723495 C931.26331038 111.86933353 930.11588337 111.86631756 928.93368584 111.8632102 C927.03814718 111.86586441 927.03814718 111.86586441 925.1043148 111.86857224 C923.74515779 111.86692277 922.38600126 111.86483658 921.02684551 111.86235213 C917.27167035 111.85677342 913.51651795 111.8574601 909.76133996 111.85912972 C905.68356881 111.85985931 901.60580416 111.85484144 897.52803576 111.8505547 C889.43114447 111.84296457 881.33425976 111.84078113 873.23736528 111.84022565 C863.54265092 111.83931301 853.84794268 111.83264843 844.15323094 111.82587883 C820.71915537 111.80980619 797.28508043 111.80391415 773.85100034 111.79913008 C762.76868951 111.79679543 751.6863792 111.79319293 740.60406877 111.7894347 C702.68039956 111.7765982 664.75673064 111.76587899 626.83305931 111.7624321 C624.4516831 111.76221046 622.07030688 111.76198868 619.68893067 111.76176675 C617.30174723 111.76154611 614.91456379 111.76132562 612.52738035 111.7611053 C607.73814289 111.76066274 602.94890543 111.76021563 598.15966797 111.75976562 C596.3784845 111.75960154 596.3784845 111.75960154 594.56131752 111.75943414 C556.05049853 111.7558028 517.53969835 111.73988038 479.02888657 111.71657526 C438.32873532 111.6919902 397.62859482 111.67825988 356.92843592 111.67706418 C352.46225587 111.67689272 347.99607583 111.67667729 343.52989578 111.67642975 C341.88030446 111.6763461 341.88030446 111.6763461 340.19738805 111.67626075 C322.48439342 111.67510916 304.77141806 111.66407795 287.05842994 111.64954269 C269.26088216 111.63519037 251.46335915 111.63193355 233.66580717 111.63998267 C223.08771928 111.64444488 212.50971121 111.64055469 201.93163377 111.62474416 C194.86795675 111.615012 187.80433582 111.61615553 180.74065934 111.62618039 C176.71443663 111.63158516 172.68836748 111.63224166 168.66215734 111.61967167 C164.99714108 111.60832473 161.33240319 111.61086575 157.66739652 111.62433875 C155.73289951 111.62791145 153.79839224 111.61680491 151.86392766 111.60504746 C142.44255196 111.6617655 133.75838464 112.49254597 126.625 119.1875 Z " fill="#FEFEFE" transform="translate(0,0)"/>
<path d="M0 0 C69.96 0 139.92 0 212 0 C212 356.4 212 712.8 212 1080 C91.88 1080 -28.24 1080 -152 1080 C-150.35 1078.35 -148.7 1076.7 -147 1075 C-142.80228293 1069.16764596 -142.41714924 1063.45420269 -142.45410156 1056.453125 C-142.44376389 1055.42783188 -142.43342621 1054.40253876 -142.42277527 1053.34617615 C-142.39344085 1049.980622 -142.39185003 1046.61567171 -142.390625 1043.25 C-142.3756371 1040.90729634 -142.35890867 1038.56460322 -142.34051514 1036.22192383 C-142.29689835 1030.07350162 -142.2768549 1023.92522196 -142.26177979 1017.77667236 C-142.24218843 1011.49556063 -142.2002206 1005.21460236 -142.16015625 998.93359375 C-142.08491538 986.62244323 -142.03458667 974.31132717 -142 962 C-140.9390852 961.99761165 -139.87817039 961.99522329 -138.78510666 961.99276257 C-112.94408908 961.93390968 -87.10316431 961.85799103 -61.26224899 961.76428509 C-48.76566157 961.7193623 -36.26910241 961.67993947 -23.77246094 961.65356445 C-12.87755918 961.63055595 -1.98274716 961.59712596 8.91208339 961.55129844 C14.67823149 961.52740481 20.44429092 961.5086507 26.21048737 961.50238609 C31.64416439 961.49631784 37.07761466 961.47625499 42.51120758 961.44572449 C44.49927188 961.43697216 46.48736584 961.43321583 48.47544861 961.43499184 C69.14591174 961.53964689 69.14591174 961.53964689 87 952 C91.43670222 946.53944342 93.24894158 941.08232772 93.25299966 934.08309472 C93.26127889 932.32864213 93.26127889 932.32864213 93.26972538 930.53874606 C93.26561475 929.2604838 93.26150411 927.98222155 93.25726891 926.66522408 C93.25996277 925.28266435 93.26353087 923.90010611 93.26789337 922.51755065 C93.27736222 918.70671498 93.27434723 914.89597476 93.26933783 911.08513437 C93.26607546 906.94359879 93.27435018 902.80208381 93.28115618 898.66055477 C93.29147304 891.39806325 93.29429705 884.1355984 93.29224396 876.87310028 C93.28919837 866.07356733 93.29750808 855.27406396 93.30799321 844.47453675 C93.32735329 824.06626425 93.33296216 803.65800178 93.33410732 783.24972118 C93.33502571 767.49287344 93.33913875 751.73602965 93.34550858 735.9791832 C93.3473036 731.44685678 93.34908323 726.91453036 93.35085833 722.38220394 C93.35130043 721.25552167 93.35174252 720.1288394 93.35219802 718.96801525 C93.36450939 687.26912889 93.37239883 655.57024391 93.37151146 623.87135506 C93.3714803 622.67580181 93.37144914 621.48024856 93.37141704 620.24846643 C93.37125082 614.18862327 93.37105274 608.12878012 93.37084763 602.06893696 C93.37080774 600.86538533 93.37076785 599.66183369 93.37072675 598.4218108 C93.37064587 595.98793596 93.37056228 593.55406112 93.37047596 591.12018627 C93.36925013 553.24303202 93.38426838 515.36591355 93.41162109 477.48876953 C93.44232378 434.95494702 93.45955471 392.42114802 93.45769465 349.88731372 C93.45754538 345.35435859 93.45744797 340.82140347 93.45738602 336.28844833 C93.45735105 334.61419753 93.45735105 334.61419753 93.45731538 332.90612348 C93.45725377 314.92318735 93.47004001 296.94028223 93.48725055 278.95735533 C93.50418136 260.89346974 93.50620088 242.82962965 93.4930319 224.76574053 C93.4856259 214.02723259 93.48934986 203.28886262 93.50891658 192.55036922 C93.52087663 185.38238204 93.51837 178.21449527 93.50397559 171.04651278 C93.49617888 166.95907687 93.49475711 162.8719088 93.51089029 158.78449132 C93.52543817 155.06625877 93.52158775 151.34851733 93.50304256 147.63030671 C93.49797399 145.66256861 93.51253641 143.69480985 93.52788812 141.72712511 C93.46223061 133.6101881 92.45198461 128.27461792 87.24609375 121.828125 C79.35128182 114.93934742 69.7849492 111.96205665 59.38354492 111.79467773 C58.28278122 111.77473251 57.18201752 111.75478729 56.04789734 111.73423767 C54.8706459 111.71752518 53.69339447 111.70081268 52.48046875 111.68359375 C50.65990715 111.6524221 50.65990715 111.6524221 48.80256653 111.62062073 C44.93093449 111.55531084 41.05923545 111.49632637 37.1875 111.4375 C34.56053998 111.39429715 31.93358671 111.35068229 29.30664062 111.30664062 C22.87116429 111.19964842 16.43562151 111.09784764 10 111 C9.99453156 109.18502014 9.99453156 109.18502014 9.98895264 107.33337402 C9.95196995 95.91597724 9.89416115 84.49884936 9.81609726 73.08165741 C9.77663183 67.2123047 9.74443858 61.34310181 9.72900391 55.47363281 C9.71383146 49.80650825 9.6793747 44.13979561 9.63169098 38.47285461 C9.61688339 36.31361985 9.60895935 34.15432627 9.60811615 31.99504089 C9.60574295 28.96434905 9.57863375 25.93479232 9.54589844 22.90429688 C9.5509288 22.01668671 9.55595917 21.12907654 9.56114197 20.21456909 C9.40861912 11.05425525 6.46316177 6.46316177 0 0 Z " fill="#FEFEFE" transform="translate(868,0)"/>
<path d="M0 0 C1.11124518 -0.00641296 2.22249037 -0.01282591 3.36740965 -0.0194332 C7.11774108 -0.03613061 10.86744178 -0.02415125 14.6177845 -0.01244164 C17.32299467 -0.01626518 20.02817563 -0.02609209 22.7333709 -0.03562677 C28.62875663 -0.05317607 34.52400343 -0.05576612 40.4194088 -0.04862022 C49.18603051 -0.03802204 57.95251733 -0.0501807 66.71912437 -0.06678609 C83.28583222 -0.09730228 99.85247905 -0.10067252 116.41920911 -0.09574004 C129.21032425 -0.09207775 142.00141934 -0.09558639 154.79253197 -0.10418892 C156.62883344 -0.10539371 158.46513492 -0.10659611 160.3014364 -0.10779613 C163.06841359 -0.10961059 165.83539078 -0.11142792 168.60236795 -0.11326083 C194.33578876 -0.13012546 220.06920201 -0.13878743 245.80262756 -0.13044739 C246.77317728 -0.13013464 247.74372701 -0.12982188 248.74368733 -0.12949965 C253.6630538 -0.12788804 258.58242025 -0.1261965 263.50178669 -0.12447305 C264.9673442 -0.12395979 264.9673442 -0.12395979 266.46250894 -0.12343615 C268.43831878 -0.12274285 270.41412862 -0.12204579 272.38993845 -0.12134498 C303.13749215 -0.11062919 333.88493115 -0.12649298 364.63246346 -0.16341209 C399.16113476 -0.20482253 433.68973501 -0.22630319 468.21843255 -0.21826112 C471.89844647 -0.2174704 475.5784604 -0.21674731 479.25847435 -0.21606636 C480.1646166 -0.2158849 481.07075885 -0.21570343 482.00435996 -0.21551647 C495.69743963 -0.21318224 509.39044768 -0.2264984 523.08350945 -0.2476902 C538.65231099 -0.27176007 554.22095449 -0.27495172 569.78975831 -0.25010987 C578.50673208 -0.23682427 587.22332831 -0.24017942 595.9402721 -0.2672869 C601.75953119 -0.28372757 607.57850631 -0.27844449 613.39774213 -0.25533636 C616.71597999 -0.24277372 620.03287299 -0.24303009 623.3511654 -0.26306303 C626.92379199 -0.28314138 630.49441139 -0.26655058 634.06695557 -0.24050903 C635.09958784 -0.25512773 636.13222012 -0.26974642 637.19614428 -0.2848081 C643.17005179 -0.19402891 646.49879436 0.69614974 650.83090455 4.90413956 C655.48608493 10.52790257 655.58363907 16.38017174 655.4998951 23.29972267 C655.50033318 24.25659477 655.50077126 25.21346687 655.50122261 26.1993351 C655.49914266 29.34311697 655.47584884 32.48635691 655.45228767 35.63004494 C655.44668891 37.81722154 655.44242013 40.00440192 655.43942451 42.19158363 C655.42799792 47.93405575 655.39854938 53.67629841 655.36531258 59.41868019 C655.32915377 66.31618191 655.31544015 73.21376056 655.29795265 80.11133003 C655.26891094 90.57736309 655.21140806 101.04289317 655.15931892 111.50895119 C673.30931892 111.50895119 691.45931892 111.50895119 710.15931892 111.50895119 C710.15931892 111.83895119 710.15931892 112.16895119 710.15931892 112.50895119 C450.44931892 112.50895119 190.73931892 112.50895119 -76.84068108 112.50895119 C-76.84068108 112.17895119 -76.84068108 111.84895119 -76.84068108 111.50895119 C-58.03068108 111.50895119 -39.22068108 111.50895119 -19.84068108 111.50895119 C-19.91029045 100.676959 -19.91029045 100.676959 -19.98130608 89.62613869 C-20.00174483 85.05060347 -20.02100066 80.47512456 -20.03599358 75.89957619 C-20.0599026 68.63741297 -20.0881837 61.37545154 -20.14243889 54.11344337 C-20.18590809 48.2584722 -20.2098208 42.40371743 -20.22019005 36.54859734 C-20.22757941 34.31507015 -20.24200906 32.08155477 -20.2636013 29.84811974 C-20.29264883 26.71901567 -20.29663641 23.59080516 -20.29478264 20.46158791 C-20.30916374 19.53873497 -20.32354485 18.61588203 -20.33836174 17.66506386 C-20.29470758 10.85273592 -18.53449246 7.43198321 -13.87546623 2.37651312 C-9.34286187 -0.41278462 -5.22565176 -0.04429611 0 0 Z " fill="#B1B1B1" transform="translate(222.8406810760498,-0.5089511871337891)"/>
<path d="M0 0 C150.48 0 300.96 0 456 0 C456 108.70597601 456 108.70597601 449.241238 115.96154755 C445.41556712 118.36755667 442.52315703 118.69566521 438.14019203 118.61523914 C437.36337057 118.62100836 436.5865491 118.62677759 435.78618759 118.63272163 C433.17923538 118.64597245 430.57382271 118.62351591 427.96694946 118.60127258 C426.08085849 118.60345278 424.19476898 118.60783035 422.30868757 118.61421841 C417.1229324 118.62541145 411.93769246 118.60538107 406.75200295 118.58032811 C401.1610542 118.55876065 395.57013513 118.56604091 389.97915649 118.56983948 C380.29146043 118.57246281 370.60393259 118.55675887 360.91627884 118.52865028 C346.9095402 118.48803637 332.902883 118.47499521 318.89609186 118.46871033 C296.17172308 118.45776384 273.44745928 118.42452293 250.72314453 118.37719727 C228.6469774 118.3312745 206.57083424 118.29585675 184.49462891 118.2746582 C183.81412857 118.27400057 183.13362823 118.27334294 182.43250667 118.27266538 C175.5986342 118.26607278 168.76476154 118.25969371 161.93088873 118.25347109 C104.62052999 118.20126682 47.31026915 118.1130365 -10 118 C-9.2575 117.505 -8.515 117.01 -7.75 116.5 C-4.1739753 113.55126428 -4.1739753 113.55126428 -1 106 C-0.67 71.02 -0.34 36.04 0 0 Z " fill="#FEFEFE" transform="translate(270,962)"/>
<path d="M0 0 C0.33 0 0.66 0 1 0 C1 70.29 1 140.58 1 213 C-119.12 213 -239.24 213 -363 213 C-361.35 211.35 -359.7 209.7 -358 208 C-353.80228293 202.16764596 -353.41714924 196.45420269 -353.45410156 189.453125 C-353.44376389 188.42783188 -353.43342621 187.40253876 -353.42277527 186.34617615 C-353.39344085 182.980622 -353.39185003 179.61567171 -353.390625 176.25 C-353.3756371 173.90729634 -353.35890867 171.56460322 -353.34051514 169.22192383 C-353.29689835 163.07350162 -353.2768549 156.92522196 -353.26177979 150.77667236 C-353.24218843 144.49556063 -353.2002206 138.21460236 -353.16015625 131.93359375 C-353.08491538 119.62244323 -353.03458667 107.31132717 -353 95 C-351.9390852 94.99761165 -350.87817039 94.99522329 -349.78510666 94.99276257 C-323.94408908 94.93390968 -298.10316431 94.85799103 -272.26224899 94.76428509 C-259.76566157 94.7193623 -247.26910241 94.67993947 -234.77246094 94.65356445 C-223.87755918 94.63055595 -212.98274716 94.59712596 -202.08791661 94.55129844 C-196.32176851 94.52740481 -190.55570908 94.5086507 -184.78951263 94.50238609 C-179.35583561 94.49631784 -173.92238534 94.47625499 -168.48879242 94.44572449 C-166.50072812 94.43697216 -164.51263416 94.43321583 -162.52455139 94.43499184 C-141.85408826 94.53964689 -141.85408826 94.53964689 -124 85 C-119.39740206 79.33526407 -117.76828199 73.76740514 -117.68115234 66.53564453 C-117.66128265 65.27479034 -117.64141296 64.01393616 -117.62094116 62.71487427 C-117.60906757 61.35418879 -117.59740455 59.99350146 -117.5859375 58.6328125 C-117.56720966 57.22890098 -117.54763505 55.82500053 -117.5272522 54.42111206 C-117.4760954 50.74200995 -117.4363822 47.06287142 -117.39910889 43.38360596 C-117.35896553 39.62283438 -117.30792053 35.86221217 -117.2578125 32.1015625 C-117.16124828 24.73447777 -117.07678176 17.36732029 -117 10 C-116.4540814 9.99761165 -115.9081628 9.99522329 -115.34570122 9.99276257 C-102.0495647 9.9335731 -88.75361106 9.85780991 -75.45767021 9.76428509 C-69.02778247 9.71955631 -62.59795846 9.68030547 -56.16796875 9.65356445 C-49.96275975 9.62755686 -43.75779568 9.5871719 -37.55273819 9.53681374 C-35.18530448 9.52012791 -32.81782838 9.50862435 -30.45034409 9.50238609 C-27.1344408 9.49276398 -23.81916658 9.46472602 -20.50341797 9.43237305 C-19.5244606 9.43380814 -18.54550323 9.43524323 -17.53688049 9.4367218 C-12.29875771 9.36443579 -8.48594011 9.01493757 -4 6 C-1.70417137 2.93282876 -1.70417137 2.93282876 0 0 Z " fill="#FEFEFE" transform="translate(1079,867)"/>
<path d="M0 0 C1.32 1.65 2.64 3.3 4 5 C9.28401965 9.65222046 13.88654867 9.58004471 20.59521484 9.54589844 C21.64947662 9.55623611 22.7037384 9.56657379 23.78994751 9.57722473 C27.26376682 9.60664862 30.73700337 9.60815187 34.2109375 9.609375 C36.62376008 9.62435685 39.03657241 9.641084 41.44937134 9.65948486 C47.79181388 9.7031696 54.13411807 9.72316018 60.47668457 9.73822021 C66.95198755 9.75778705 73.42714104 9.79975763 79.90234375 9.83984375 C92.60151185 9.91515823 105.30065702 9.96620343 118 10 C118.00546844 11.15392494 118.00546844 11.15392494 118.01104736 12.3311615 C118.04905664 19.6131278 118.10605422 26.89458978 118.18390274 34.17623043 C118.22326026 37.91901737 118.25550555 41.66157317 118.27099609 45.40454102 C118.28624091 49.02288032 118.32082211 52.64058371 118.36830902 56.25863838 C118.3830429 57.63273118 118.39103639 59.00691482 118.39188385 60.38108635 C118.40457677 70.65112469 119.47715943 79.42184443 127 87 C129.85841959 88.82611026 129.85841959 88.82611026 133 90.25 C134.546875 91.00023437 134.546875 91.00023437 136.125 91.765625 C140.32324639 93.56813296 143.73600206 94.12663243 148.3024292 94.15821838 C149.37652542 94.1680072 150.45062164 94.17779602 151.55726624 94.18788147 C152.73042892 94.19363693 153.90359161 94.1993924 155.11230469 94.20532227 C156.35159225 94.21522186 157.59087982 94.22512146 158.86772156 94.23532104 C162.26199938 94.26148869 165.65625393 94.28335901 169.05057049 94.30332303 C172.59935202 94.32521026 176.14809111 94.35258555 179.69683838 94.37937927 C186.41509092 94.42926917 193.13336708 94.47422171 199.85166574 94.51740164 C207.50097589 94.56680568 215.15024345 94.62171206 222.79951239 94.67708123 C238.53296888 94.79084442 254.26646457 94.89769576 270 95 C270.09275887 108.68245948 270.16379524 122.36484391 270.20724869 136.04755402 C270.22810619 142.40128196 270.25639098 148.75479447 270.30175781 155.10839844 C270.34528003 161.24218356 270.36915093 167.37576169 270.37950897 173.50968933 C270.38688881 175.84762326 270.4012999 178.18554611 270.42292023 180.52339172 C270.45203804 183.80295117 270.45595237 187.08165981 270.45410156 190.36132812 C270.46848267 191.3237442 270.48286377 192.28616028 270.49768066 193.27774048 C270.46196818 199.14184769 269.81895017 204.33099061 266 209 C260.70929598 213.67180527 256.11562452 213.55963095 249.40786743 213.48101807 C248.34101727 213.48443577 247.27416711 213.48785347 246.17498815 213.49137473 C242.60027213 213.49796315 239.026307 213.47596058 235.45166016 213.45410156 C232.88923154 213.4529733 230.32680164 213.45360653 227.76437378 213.45587158 C222.24771193 213.45678245 216.73129186 213.44543749 211.21467972 213.42292023 C203.23868157 213.39038566 195.26277489 213.37999174 187.28671758 213.37496826 C174.34555277 213.36621788 161.40448891 213.33960931 148.46337891 213.30175781 C135.8937225 213.26503105 123.32409367 213.23676843 110.75439453 213.21972656 C109.97145173 213.21865457 109.18850893 213.21758258 108.38184059 213.21647811 C102.25854 213.20816022 96.13523881 213.20033259 90.01193738 213.19265985 C60.00786558 213.15493808 30.00404657 213.07446199 0 213 C0 142.71 0 72.42 0 0 Z " fill="#FEFEFE" transform="translate(0,867)"/>
<path d="M0 0 C69.96 0 139.92 0 212 0 C209.525 2.475 209.525 2.475 207 5 C203.2454212 9.62111632 203.55879986 14.1406205 203.56762695 19.83911133 C203.5574353 20.82495209 203.54724365 21.81079285 203.53674316 22.82650757 C203.5065983 26.0784065 203.49734476 29.33001091 203.48828125 32.58203125 C203.47143571 34.83934001 203.45328564 37.09663938 203.43388367 39.35392761 C203.38636422 45.29028388 203.35656726 51.22660209 203.33044434 57.16308594 C203.30064878 63.22273272 203.25411495 69.28224833 203.20898438 75.34179688 C203.12292901 87.227796 203.05559351 99.1138221 203 111 C201.9688205 111.00879936 201.9688205 111.00879936 200.91680908 111.01777649 C194.38636583 111.07607319 187.8562372 111.14835526 181.32611465 111.23571491 C177.97016227 111.28013436 174.61444786 111.31790316 171.25830078 111.34643555 C167.38545313 111.3802564 163.51321265 111.43258675 159.640625 111.48828125 C158.455755 111.49467117 157.27088501 111.5010611 156.05010986 111.50764465 C144.94358468 111.70044379 134.17540895 112.84279909 126 121 C121.31553614 126.41224708 118.88813802 130.30857787 118.84178162 137.59977722 C118.8319928 138.76505447 118.82220398 139.93033173 118.81211853 141.13092041 C118.80636307 142.4105365 118.8006076 143.69015259 118.79467773 145.00854492 C118.78509833 146.36857907 118.77508821 147.72861025 118.76467896 149.08863831 C118.73763053 152.78253871 118.71662063 156.47645189 118.69667697 160.17039657 C118.67481704 164.03015076 118.64742838 167.88986558 118.62062073 171.74958801 C118.57069394 179.05932222 118.52575505 186.36907827 118.48259836 193.67885524 C118.43322588 202.00043694 118.37830779 210.32197913 118.32291877 218.64352262 C118.20909893 235.7623119 118.10225989 252.88113785 118 270 C104.18720394 270.11701087 90.37448519 270.20474178 76.56129456 270.25906086 C70.1469705 270.28513381 63.73297985 270.32049109 57.31884766 270.37719727 C51.12669608 270.43159722 44.93486482 270.46143786 38.74249268 270.47438622 C36.3822119 270.4836116 34.0219483 270.50162676 31.6618042 270.52865028 C28.35097625 270.56504513 25.04146515 270.56994076 21.73046875 270.56762695 C20.75870193 270.58560333 19.78693512 270.60357971 18.78572083 270.62210083 C12.46687066 270.57444262 7.70939178 269.416349 3 265 C-0.93936485 260.31369241 -0.41173836 255.34444581 -0.36076355 249.52812195 C-0.36332682 248.46212621 -0.3658901 247.39613047 -0.36853105 246.29783183 C-0.37347877 242.72012999 -0.35695922 239.14284862 -0.34057617 235.56518555 C-0.33973012 233.00290436 -0.34020462 230.44062244 -0.34190369 227.87834167 C-0.3425872 222.35897647 -0.33406924 216.83974706 -0.31719017 211.32040977 C-0.29280191 203.34042033 -0.28499508 195.36048232 -0.2812262 187.38045964 C-0.27466144 174.43321671 -0.25469962 161.4860305 -0.22631836 148.53881836 C-0.19877842 135.9623238 -0.17757893 123.38584474 -0.16479492 110.80932617 C-0.16399093 110.02611537 -0.16318694 109.24290457 -0.16235858 108.43596011 C-0.15612026 102.31067446 -0.15024951 96.18538847 -0.14449489 90.06010234 C-0.11619735 60.04001616 -0.05584168 30.02007199 0 0 Z " fill="#FEFEFE" transform="translate(0,0)"/>
<path d="M0 0 C69.96 0 139.92 0 212 0 C212.1613254 65.00517217 212.1613254 65.00517217 212.1953125 92.12890625 C212.20314407 98.33740277 212.21122602 104.54589889 212.21972656 110.75439453 C212.22078156 111.53253513 212.22183655 112.31067574 212.22292352 113.11239636 C212.24032376 125.67713287 212.27186067 138.2417962 212.30861118 150.8064893 C212.34600898 163.6999552 212.36823339 176.59338278 212.37635398 189.48690069 C212.38184418 197.44379586 212.39918831 205.40048429 212.43166587 213.35731582 C212.45529672 219.45724576 212.45782279 225.55699761 212.45243073 231.65697861 C212.453533 234.16038538 212.46151381 236.66379983 212.4768219 239.16716003 C212.49667726 242.58101912 212.49195457 245.99398843 212.48101807 249.40786743 C212.49266943 250.40203694 212.5043208 251.39620645 212.51632524 252.42050231 C212.46560889 258.26400587 211.87002932 261.53825649 208 266 C203.64336038 269.15856373 199.84484453 270.12660867 194.53277588 270.12025452 C193.19929863 270.12231651 193.19929863 270.12231651 191.83888245 270.12442017 C190.38771278 270.11902725 190.38771278 270.11902725 188.90722656 270.11352539 C187.88251755 270.11367142 186.85780853 270.11381744 185.80204773 270.1139679 C182.41488529 270.11327121 179.02777783 270.10549015 175.640625 270.09765625 C173.29221629 270.09579121 170.94380719 270.09436771 168.59539795 270.09336853 C162.41403123 270.08955016 156.232688 270.07972564 150.05133057 270.06866455 C143.74385903 270.05843584 137.43638369 270.05386778 131.12890625 270.04882812 C118.75259384 270.0381028 106.37629888 270.0210345 94 270 C93.99780016 268.94423893 93.99780016 268.94423893 93.99555588 267.86714935 C93.95846755 250.72317372 93.89942608 233.57941359 93.81609726 216.43560028 C93.77632632 208.14488917 93.74392398 199.85427271 93.72900391 191.56347656 C93.71597726 184.33529435 93.6889869 177.10732058 93.64538693 169.87925577 C93.62279468 166.05373504 93.60708796 162.22847117 93.60811615 158.40287781 C93.60886411 154.79776736 93.59085998 151.19322424 93.55883217 147.58826065 C93.54632943 145.64322088 93.55338668 143.69808574 93.56114197 141.75302124 C93.4648246 133.63830953 92.45067892 128.27300107 87.24609375 121.828125 C79.35128182 114.93934742 69.7849492 111.96205665 59.38354492 111.79467773 C58.28278122 111.77473251 57.18201752 111.75478729 56.04789734 111.73423767 C54.8706459 111.71752518 53.69339447 111.70081268 52.48046875 111.68359375 C50.65990715 111.6524221 50.65990715 111.6524221 48.80256653 111.62062073 C44.93093449 111.55531084 41.05923545 111.49632637 37.1875 111.4375 C34.56053998 111.39429715 31.93358671 111.35068229 29.30664062 111.30664062 C22.87116429 111.19964842 16.43562151 111.09784764 10 111 C9.99635437 109.79001343 9.99270874 108.58002686 9.98895264 107.33337402 C9.95196995 95.91597724 9.89416115 84.49884936 9.81609726 73.08165741 C9.77663183 67.2123047 9.74443858 61.34310181 9.72900391 55.47363281 C9.71383146 49.80650825 9.6793747 44.13979561 9.63169098 38.47285461 C9.61688339 36.31361985 9.60895935 34.15432627 9.60811615 31.99504089 C9.60574295 28.96434905 9.57863375 25.93479232 9.54589844 22.90429688 C9.5509288 22.01668671 9.55595917 21.12907654 9.56114197 20.21456909 C9.40861912 11.05425525 6.46316177 6.46316177 0 0 Z " fill="#FEFEFE" transform="translate(868,0)"/>
<path d="M0 0 C72.6 0 145.2 0 220 0 C220 108.66967264 220 108.66967264 213.26627922 115.95947647 C209.32660903 118.42068361 206.24739613 118.70680587 201.73953247 118.64837646 C200.92333998 118.65758755 200.10714748 118.66679863 199.26622188 118.67628884 C196.53920023 118.70085867 193.81351805 118.68981245 191.08642578 118.67871094 C189.12809107 118.68876341 187.16976616 118.70091139 185.2114563 118.71499634 C179.89726647 118.74632864 174.58352947 118.7457259 169.26927042 118.73749065 C164.83089244 118.73333042 160.39260336 118.74430384 155.95424068 118.75513482 C145.48195416 118.78027747 135.0098933 118.77914973 124.53759766 118.76171875 C113.7389612 118.74419967 102.94106326 118.77057994 92.14253628 118.81868529 C82.86673237 118.85847021 73.59116157 118.87109473 64.31527698 118.86197114 C58.77720588 118.85678922 53.23963018 118.86183337 47.70163345 118.89293671 C42.4925025 118.9209974 37.28448828 118.91507378 32.07538986 118.88322067 C30.16625175 118.87717223 28.25703253 118.88300248 26.34797668 118.90172958 C10.14095574 119.04884396 10.14095574 119.04884396 4.92672729 114.82037354 C-21.52735961 87.11232739 0 38.30867442 0 0 Z " fill="#FEFEFE" transform="translate(506,962)"/>
<path d="M0 0 C0 72.27 0 144.54 0 219 C-109.36 219 -109.36 219 -115.8125 213.4375 C-118.7491965 209.88255161 -118.14822307 205.47003855 -118.14717102 201.12480164 C-118.15084771 200.31384484 -118.1545244 199.50288804 -118.1583125 198.66735679 C-118.16935598 195.94058502 -118.17319428 193.21385134 -118.17700195 190.48706055 C-118.18326603 188.53578571 -118.18991278 186.58451207 -118.19691467 184.63323975 C-118.21432777 179.32533672 -118.22487697 174.0174427 -118.2331202 168.70951819 C-118.238269 165.39460388 -118.24434474 162.07969238 -118.25063133 158.76478004 C-118.26968305 148.3968115 -118.28391504 138.02885008 -118.2922433 127.66086739 C-118.30202098 115.68573675 -118.32835452 103.71079069 -118.36874419 91.7357251 C-118.39888039 82.48384113 -118.41370975 73.23201015 -118.41702431 63.98007804 C-118.41937735 58.45219317 -118.42837108 52.9245055 -118.45348549 47.3966732 C-118.47672792 42.19690348 -118.48101482 36.99746135 -118.47072411 31.7976532 C-118.47022773 29.88927942 -118.47657811 27.98088973 -118.49028015 26.07256508 C-118.50794377 23.46669903 -118.50092055 20.86201572 -118.48774719 18.25614929 C-118.50420106 17.12398634 -118.50420106 17.12398634 -118.52098733 15.9689514 C-118.45805307 10.81084539 -117.46047971 7.83108269 -114 4 C-79.9908509 -13.00457455 -38.02338462 0 0 0 Z " fill="#FEFEFE" transform="translate(118,658)"/>
<path d="M0 0 C105 0 105 0 115 5 C118.56374297 8.91065355 118.42800555 13.04559036 118.38768005 18.1157074 C118.39306559 18.92837305 118.39845113 19.7410387 118.40399987 20.57833058 C118.41829731 23.29903823 118.41117137 26.01926057 118.40405273 28.73999023 C118.40975537 30.69156282 118.41671921 32.64313207 118.42485046 34.59469604 C118.44280872 39.8942686 118.44160846 45.19367582 118.43590808 50.49326968 C118.43282011 54.91685146 118.43890432 59.3404013 118.44494683 63.76397854 C118.45899919 74.19920602 118.45742481 84.63435164 118.44604492 95.06958008 C118.43456249 105.83680471 118.44863994 116.60378029 118.4754414 127.3709721 C118.49758893 136.61442013 118.50423792 145.85778994 118.49836498 155.10126263 C118.49499201 160.62238818 118.49743318 166.14335407 118.51461601 171.66445732 C118.53006793 176.8560774 118.52614895 182.04732817 118.50731087 187.23893356 C118.50362016 189.14407213 118.50674746 191.04923794 118.51719666 192.95435143 C118.53037536 195.55576431 118.51888722 198.15594897 118.50120544 200.75730896 C118.51561295 201.88742556 118.51561295 201.88742556 118.53031152 203.04037279 C118.45872958 208.16093808 117.19752716 211.03946764 114 215 C85.43816816 240.09979162 38.02338462 219 0 219 C0 146.73 0 74.46 0 0 Z " fill="#FEFEFE" transform="translate(962,658)"/>
<path d="M0 0 C0.33 0 0.66 0 1 0 C1.09345329 19.71467114 1.16398408 39.42929732 1.20724869 59.14414406 C1.22787141 68.29815705 1.25598644 77.45203239 1.30175781 86.60595703 C1.34163448 94.58479224 1.36743493 102.56352776 1.37635398 110.54245985 C1.38156734 114.76704524 1.39381444 118.99134543 1.42292023 123.21583939 C1.45010255 127.19344382 1.45843939 131.170646 1.45243073 135.1483345 C1.45352971 136.60681343 1.46146713 138.06530602 1.4768219 139.52370453 C1.49678969 141.5183586 1.48953918 143.51322928 1.48101807 145.50796509 C1.48470524 146.6233346 1.48839241 147.73870411 1.49219131 148.8878727 C0.87880575 152.76631163 -0.59224539 154.93391619 -3 158 C-7.35663962 161.15856373 -11.15515547 162.12660867 -16.46722412 162.12025452 C-17.7979426 162.12232076 -17.7979426 162.12232076 -19.15554428 162.12442875 C-20.1248299 162.12083064 -21.09411552 162.11723253 -22.09277344 162.11352539 C-23.65466589 162.11370619 -23.65466589 162.11370619 -25.24811172 162.11389065 C-28.61855455 162.11314428 -31.98894207 162.10552854 -35.359375 162.09765625 C-37.44026666 162.09618598 -39.52115868 162.09516579 -41.60205078 162.09460449 C-49.31803949 162.0893615 -57.03402029 162.0754003 -64.75 162.0625 C-81.9925 162.041875 -99.235 162.02125 -117 162 C-117 111.84 -117 61.68 -117 10 C-64.9375 9.6875 -64.9375 9.6875 -48.51928711 9.61206055 C-43.64818508 9.57548152 -43.64818508 9.57548152 -38.77711487 9.5349884 C-36.61328935 9.51887475 -34.44941578 9.50856215 -32.28553772 9.50288391 C-29.00121496 9.49312606 -25.71751692 9.46476561 -22.43334961 9.43237305 C-20.99561266 9.43451199 -20.99561266 9.43451199 -19.52883053 9.43669415 C-12.83460453 9.34259098 -7.83804334 8.46461659 -2.625 3.9375 C-0.94899378 2.09141973 -0.94899378 2.09141973 0 0 Z " fill="#FEFEFE" transform="translate(1079,260)"/>
<path d="M0 0 C0.59634215 0.77800838 1.19268431 1.55601677 1.80709743 2.35760117 C5.04616722 6.26060824 8.33730695 8.58410854 13.33949089 9.36540985 C16.10632539 9.53110338 18.84516493 9.56014855 21.61694336 9.54589844 C23.20911478 9.56148993 23.20911478 9.56148993 24.83345127 9.57739639 C28.25241284 9.60642421 31.67077138 9.60846292 35.08984375 9.609375 C37.20741002 9.62337678 39.32496532 9.63915527 41.44250488 9.65673828 C49.27405495 9.70934363 57.10580528 9.72760577 64.9375 9.75 C91.2034375 9.87375 91.2034375 9.87375 118 10 C118 60.16 118 110.32 118 162 C100.51 162.103125 83.02 162.20625 65 162.3125 C59.48667969 162.35802002 53.97335938 162.40354004 48.29296875 162.45043945 C41.53710937 162.47302246 41.53710937 162.47302246 38.36987305 162.47721863 C36.16767317 162.48487395 33.96549368 162.50241274 31.76342773 162.52787781 C28.4187403 162.56460776 25.07532837 162.5695259 21.73046875 162.56762695 C20.75683884 162.58561749 19.78320892 162.60360804 18.78007507 162.62214375 C12.46352864 162.57430695 7.70746569 161.41454276 3 157 C0.12373808 153.14410453 -0.37257398 150.39569819 -0.36076355 145.6282196 C-0.36488754 144.34239487 -0.36901154 143.05657013 -0.3732605 141.73178101 C-0.36264439 140.31426791 -0.35173998 138.89675694 -0.34057617 137.47924805 C-0.33972961 135.98099281 -0.34020561 134.48273633 -0.34190369 132.98448181 C-0.34276394 128.92281465 -0.32513337 124.86141362 -0.30418181 120.79980826 C-0.28542004 116.55306077 -0.28366497 112.30630708 -0.28010559 108.05952454 C-0.27078366 100.02020767 -0.24616787 91.98101329 -0.21605712 83.94175035 C-0.18251774 74.78825873 -0.16602826 65.63476124 -0.15097082 56.48122346 C-0.11961844 37.65407955 -0.06685505 18.82704963 0 0 Z " fill="#FEFEFE" transform="translate(0,260)"/>
<path d="M0 0 C27.72 0 55.44 0 84 0 C84.03738281 7.49847656 84.07476562 14.99695313 84.11328125 22.72265625 C84.14356079 27.47593436 84.17470865 32.22917501 84.20898438 36.98242188 C84.26329339 44.52529001 84.31440427 52.06808406 84.34643555 59.61108398 C84.37246403 65.69310658 84.41286387 71.77488017 84.46318626 77.85674858 C84.47985793 80.17590676 84.49137032 82.49510801 84.49761391 84.8143177 C84.50725141 88.06536017 84.5353078 91.31576514 84.56762695 94.56665039 C84.56619186 95.523311 84.56475677 96.47997162 84.5632782 97.46562195 C84.64996161 103.64019608 85.23443289 108.99892231 89.60546875 113.7421875 C90.12753906 114.11601563 90.64960937 114.48984375 91.1875 114.875 C92.115625 115.57625 93.04375 116.2775 94 117 C94 117.33 94 117.66 94 118 C59.02 118 24.04 118 -12 118 C-10.02 117.01 -10.02 117.01 -8 116 C-3.46742691 112.11493735 -1.32813269 108.81059367 -0.80881882 102.77981949 C-0.71401893 100.07830654 -0.6872334 97.38335406 -0.68115234 94.68017578 C-0.67110672 93.65517471 -0.6610611 92.63017365 -0.65071106 91.57411194 C-0.61990596 88.19785098 -0.60285114 84.82166923 -0.5859375 81.4453125 C-0.56722373 79.09975504 -0.54765016 76.7542043 -0.5272522 74.40866089 C-0.47594725 68.24381471 -0.4363126 62.07894672 -0.39910889 55.91400146 C-0.35201402 48.51247718 -0.2904231 41.11106103 -0.23126221 33.70962524 C-0.14306993 22.47312719 -0.07329088 11.23664965 0 0 Z " fill="#FEFEFE" transform="translate(422,962)"/>
<path d="M0 0 C0.33 0 0.66 0 1 0 C1 34.65 1 69.3 1 105 C-0.32 103.35 -1.64 101.7 -3 100 C-9.10756071 95.86358575 -15.48642094 95.41609327 -22.66040039 95.45410156 C-24.19855911 95.43859505 -24.19855911 95.43859505 -25.76779175 95.42277527 C-29.12790944 95.3934822 -32.48742123 95.39185091 -35.84765625 95.390625 C-38.18893066 95.3756343 -40.53019453 95.35890529 -42.8714447 95.34051514 C-49.0116323 95.29692978 -55.15167725 95.27686189 -61.29199219 95.26177979 C-68.67109129 95.23872607 -76.0500338 95.18630648 -83.42900848 95.13883972 C-94.61937976 95.07012779 -105.80930185 95.03859527 -117 95 C-117 67.28 -117 39.56 -117 11 C-105.7696875 10.96132813 -105.7696875 10.96132813 -94.3125 10.921875 C-89.56376802 10.89670262 -84.81509949 10.87036658 -80.06640625 10.83984375 C-72.53238702 10.79152856 -64.99851467 10.74747628 -57.46435547 10.72900391 C-51.38876117 10.71383781 -45.31355158 10.67939214 -39.23812866 10.63169098 C-36.92259061 10.61687688 -34.60699764 10.60895897 -32.29141235 10.60811615 C-29.04281811 10.60574495 -25.79528571 10.57865104 -22.546875 10.54589844 C-21.59380966 10.5509288 -20.64074432 10.55595917 -19.65879822 10.56114197 C-12.88069018 10.45571516 -7.53223465 9.08286295 -2.34197998 4.55291367 C-0.76356275 2.92574135 -0.76356275 2.92574135 0 0 Z " fill="#FEFEFE" transform="translate(1079,563)"/>
<path d="M0 0 C27.72 0 55.44 0 84 0 C84.03738281 7.49847656 84.07476563 14.99695313 84.11328125 22.72265625 C84.14356079 27.47593436 84.17470865 32.22917501 84.20898438 36.98242188 C84.26329339 44.52529001 84.31440427 52.06808406 84.34643555 59.61108398 C84.37246403 65.69310658 84.41286387 71.77488017 84.46318626 77.85674858 C84.47985793 80.17590676 84.49137032 82.49510801 84.49761391 84.8143177 C84.50725141 88.06536017 84.5353078 91.31576514 84.56762695 94.56665039 C84.56619186 95.523311 84.56475677 96.47997162 84.5632782 97.46562195 C84.65665769 104.11716662 85.48475933 109.17988168 90.0625 114.3125 C90.701875 114.869375 91.34125 115.42625 92 116 C92.66 116.66 93.32 117.32 94 118 C59.68 118 25.36 118 -10 118 C-8.35 116.35 -6.7 114.7 -5 113 C-0.80228293 107.16764596 -0.41714924 101.45420269 -0.45410156 94.453125 C-0.44376389 93.42783188 -0.43342621 92.40253876 -0.42277527 91.34617615 C-0.39344085 87.980622 -0.39185003 84.61567171 -0.390625 81.25 C-0.3756371 78.90729634 -0.35890867 76.56460322 -0.34051514 74.22192383 C-0.29689835 68.07350162 -0.2768549 61.92522196 -0.26177979 55.77667236 C-0.23874036 48.39008878 -0.18631714 41.00366192 -0.13883972 33.61720276 C-0.07009264 22.41142766 -0.03858851 11.20610231 0 0 Z " fill="#FEFEFE" transform="translate(726,962)"/>
<path d="M0 0 C1.32 1.65 2.64 3.3 4 5 C6.82442722 8.31563196 9.750671 9.79550665 14.14855385 10.19533157 C16.86652735 10.28656536 19.57858011 10.31281123 22.2980957 10.31884766 C23.33270432 10.32889328 24.36731293 10.3389389 25.43327332 10.34928894 C28.84743706 10.38013934 32.26152232 10.39716147 35.67578125 10.4140625 C38.04518815 10.43277263 40.41458838 10.45234592 42.78398132 10.4727478 C49.01624621 10.52409127 55.2485327 10.56370529 61.480896 10.60089111 C68.96082203 10.64795566 76.44064067 10.70956307 83.92047882 10.76873779 C95.28027592 10.85697701 106.64005214 10.92672245 118 11 C118 38.72 118 66.44 118 95 C110.4409375 95.02578125 102.881875 95.0515625 95.09375 95.078125 C90.29944543 95.10329716 85.5052037 95.12963302 80.7109375 95.16015625 C73.1044899 95.20847284 65.49818782 95.2525246 57.89160156 95.27099609 C51.7576543 95.28616135 45.62408816 95.32060556 39.49031067 95.36830902 C37.15244361 95.38312398 34.81452213 95.39104108 32.47660828 95.39188385 C29.19688482 95.39425479 25.9182135 95.42134667 22.63867188 95.45410156 C21.6762558 95.4490712 20.71383972 95.44404083 19.72225952 95.43885803 C13.78680163 95.53031791 8.82274926 96.33070703 4 100 C2.68 101.65 1.36 103.3 0 105 C0 70.35 0 35.7 0 0 Z " fill="#FEFEFE" transform="translate(0,563)"/>
<path d="M0 0 C34.32 0 68.64 0 104 0 C102.35 1.65 100.7 3.3 99 5 C96.02568829 8.61166422 94.88327351 11.44245673 94.84178162 16.1191864 C94.8319928 16.95631165 94.82220398 17.79343689 94.81211853 18.65592957 C94.80636307 19.57086685 94.8006076 20.48580414 94.79467773 21.4284668 C94.78477814 22.39450836 94.77487854 23.36054993 94.76467896 24.35586548 C94.7330547 27.55362485 94.70830278 30.75139908 94.68359375 33.94921875 C94.66302503 36.16453948 94.64202858 38.37985628 94.62062073 40.59516907 C94.56539163 46.42962461 94.515986 52.26411563 94.46777344 58.09863281 C94.40873894 65.09707779 94.34250632 72.09545787 94.27747345 79.09384918 C94.17945339 89.72919319 94.09060446 100.36457858 94 111 C66.28 111 38.56 111 10 111 C9.97421875 104.0184375 9.9484375 97.036875 9.921875 89.84375 C9.89670091 85.41402604 9.8703636 80.98436998 9.83984375 76.5546875 C9.79153918 69.52766686 9.74748293 62.50080343 9.72900391 55.47363281 C9.71383146 49.80650825 9.6793747 44.13979561 9.63169098 38.47285461 C9.61688339 36.31361985 9.60895935 34.15432627 9.60811615 31.99504089 C9.60574295 28.96434905 9.57863375 25.93479232 9.54589844 22.90429688 C9.5509288 22.01668671 9.55595917 21.12907654 9.56114197 20.21456909 C9.40861912 11.05425525 6.46316177 6.46316177 0 0 Z " fill="#FEFEFE" transform="translate(716,0)"/>
<path d="M0 0 C34.32 0 68.64 0 104 0 C102.35 1.65 100.7 3.3 99 5 C96.02568829 8.61166422 94.88327351 11.44245673 94.84178162 16.1191864 C94.8319928 16.95631165 94.82220398 17.79343689 94.81211853 18.65592957 C94.80636307 19.57086685 94.8006076 20.48580414 94.79467773 21.4284668 C94.78477814 22.39450836 94.77487854 23.36054993 94.76467896 24.35586548 C94.7330547 27.55362485 94.70830278 30.75139908 94.68359375 33.94921875 C94.66302503 36.16453948 94.64202858 38.37985628 94.62062073 40.59516907 C94.56539163 46.42962461 94.515986 52.26411563 94.46777344 58.09863281 C94.40873894 65.09707779 94.34250632 72.09545787 94.27747345 79.09384918 C94.17945339 89.72919319 94.09060446 100.36457858 94 111 C66.28 111 38.56 111 10 111 C9.96261719 104.00683594 9.92523437 97.01367188 9.88671875 89.80859375 C9.85643742 85.37432446 9.82528842 80.94009522 9.79101562 76.50585938 C9.73671706 69.46999134 9.68560579 62.43420255 9.65356445 55.39819336 C9.62752648 49.72464416 9.58712001 44.05136147 9.53681374 38.37797737 C9.52014847 36.21512229 9.50863209 34.05222111 9.50238609 31.88931084 C9.49274154 28.8561812 9.46467714 25.82373288 9.43237305 22.79077148 C9.43380814 21.89956604 9.43524323 21.0083606 9.4367218 20.09014893 C9.34657573 14.09239391 8.63197241 8.85610631 4.39453125 4.2578125 C3.87246094 3.88398437 3.35039063 3.51015625 2.8125 3.125 C1.884375 2.42375 0.95625 1.7225 0 1 C0 0.67 0 0.34 0 0 Z " fill="#FEFEFE" transform="translate(564,0)"/>
<path d="M0 0 C34.32 0 68.64 0 104 0 C102.35 1.65 100.7 3.3 99 5 C94.96906484 10.66837493 94.41559142 16.10916447 94.45410156 22.90429688 C94.43859505 24.33982407 94.43859505 24.33982407 94.42277527 25.80435181 C94.39346427 28.94265867 94.39185055 32.08031731 94.390625 35.21875 C94.37563549 37.40451275 94.35890673 39.5902642 94.34051514 41.77600098 C94.2969163 47.51013728 94.27685894 53.24412079 94.26177979 58.97839355 C94.23873216 65.86855944 94.18631102 72.7585575 94.13883972 79.64859009 C94.07011268 90.09910378 94.03859256 100.54913594 94 111 C66.28 111 38.56 111 10 111 C9.96261719 103.92304687 9.92523438 96.84609375 9.88671875 89.5546875 C9.85644143 85.07028817 9.82529506 80.58592865 9.79101562 76.1015625 C9.73669337 68.98439536 9.68558311 61.86730697 9.65356445 54.75 C9.62754785 49.01161801 9.58715657 43.27350047 9.53681374 37.53528214 C9.520134 35.34648046 9.50862663 33.15763303 9.50238609 30.9687767 C9.49275729 27.90191704 9.46471171 24.83573564 9.43237305 21.76904297 C9.43380814 20.86489151 9.43524323 19.96074005 9.4367218 19.02919006 C9.36012903 13.89018414 8.69260925 10.51890841 6 6 C5.67 5.01 5.34 4.02 5 3 C2.49552484 1.78130071 2.49552484 1.78130071 0 1 C0 0.67 0 0.34 0 0 Z " fill="#FEFEFE" transform="translate(412,0)"/>
<path d="M0 0 C34.32 0 68.64 0 104 0 C102.35 1.65 100.7 3.3 99 5 C94.96906484 10.66837493 94.41559142 16.10916447 94.45410156 22.90429688 C94.43859505 24.33982407 94.43859505 24.33982407 94.42277527 25.80435181 C94.39346427 28.94265867 94.39185055 32.08031731 94.390625 35.21875 C94.37563549 37.40451275 94.35890673 39.5902642 94.34051514 41.77600098 C94.2969163 47.51013728 94.27685894 53.24412079 94.26177979 58.97839355 C94.23873216 65.86855944 94.18631102 72.7585575 94.13883972 79.64859009 C94.07011268 90.09910378 94.03859256 100.54913594 94 111 C66.28 111 38.56 111 10 111 C9.97421875 103.94625 9.9484375 96.8925 9.921875 89.625 C9.89670117 85.14970349 9.87036405 80.67447419 9.83984375 76.19921875 C9.79153757 69.09976974 9.74748193 62.00047637 9.72900391 54.90087891 C9.71383242 49.17540163 9.67937734 43.45033217 9.63169098 37.72503662 C9.6168824 35.54347279 9.60895929 33.36185074 9.60811615 31.18023682 C9.60574325 28.1184163 9.57863636 25.05771981 9.54589844 21.99609375 C9.5509288 21.09913284 9.55595917 20.20217194 9.56114197 19.2780304 C9.46592915 13.50209649 8.53143913 8.70091482 5 4 C3.35 2.68 1.7 1.36 0 0 Z " fill="#FEFEFE" transform="translate(260,0)"/>
<path d="M0 0 C9.24 0 18.48 0 28 0 C34.81178149 18.38683791 41.61665209 36.77539632 48.1875 55.25 C48.41297516 55.881409 48.63845032 56.51281799 48.87075806 57.1633606 C51.44840698 64.38876642 53.89151544 71.62294624 56 79 C56.76121168 77.29663288 57.50805131 75.58684547 58.25 73.875 C58.66765625 72.92367187 59.0853125 71.97234375 59.515625 70.9921875 C60.83211792 67.68701692 61.76423744 64.32467158 62.703125 60.89453125 C65.46620894 51.02674706 69.01721566 41.44449646 72.5 31.8125 C73.17098446 29.94611144 73.84155971 28.07957572 74.51171875 26.21289062 C77.65421651 17.46783803 80.82432723 8.73310011 84 0 C93.24 0 102.48 0 112 0 C112 40.59 112 81.18 112 123 C104.41 123 96.82 123 89 123 C88.95440484 115.07941935 88.91788923 107.1589446 88.89637566 99.23826694 C88.8860385 95.55845234 88.8720692 91.8787339 88.84912109 88.19897461 C88.66923992 58.60711254 88.66923992 58.60711254 90.56689453 46.35522461 C91.06291914 42.51257174 91.06734955 38.87153849 91 35 C90.64397705 36.02843018 90.2879541 37.05686035 89.92114258 38.11645508 C83.343449 57.09789056 76.69848697 76.04859584 69.6875 94.875 C69.4056485 95.63269684 69.123797 96.39039368 68.83340454 97.17105103 C64.21757066 109.56485868 64.21757066 109.56485868 63 112 C58.38 112 53.76 112 49 112 C44.50816328 101.53049912 40.5808199 90.89076369 36.6875 80.1875 C36.01947855 78.35684175 35.35142827 76.52619402 34.68334961 74.69555664 C29.99890887 61.839157 25.4116013 48.95291246 21 36 C20.97250234 37.37488287 20.9533836 38.74993391 20.9375 40.125 C20.92589844 40.89070312 20.91429687 41.65640625 20.90234375 42.4453125 C20.94017855 45.03892684 20.94017855 45.03892684 21.49900818 47.70401001 C22.04328258 51.28475306 22.11987932 54.6687899 22.11352539 58.29052734 C22.11367142 58.99366058 22.11381744 59.69679382 22.1139679 60.42123413 C22.11327584 62.72616755 22.1055168 65.03101834 22.09765625 67.3359375 C22.09578956 68.94161942 22.09436684 70.54730192 22.09336853 72.15298462 C22.08956315 76.36482332 22.07974988 80.57662716 22.06866455 84.78845215 C22.05840777 89.09203622 22.05386179 93.39562596 22.04882812 97.69921875 C22.03812573 106.13283023 22.02054507 114.56640675 22 123 C14.74 123 7.48 123 0 123 C0 82.41 0 41.82 0 0 Z " fill="#FAFAFA" transform="translate(488,485)"/>
<path d="M0 0 C1.55257004 -0.00087616 1.55257004 -0.00087616 3.13650513 -0.00177002 C6.53471198 0.00100169 9.93202578 0.03205147 13.33007812 0.06347656 C15.69518556 0.07094217 18.0602992 0.07663359 20.42541504 0.08062744 C26.63319141 0.09585839 32.84059005 0.13511885 39.04821777 0.17944336 C46.50554601 0.22766759 53.96300095 0.24594211 61.42044067 0.26925659 C72.73433207 0.30797079 84.0473956 0.38464359 95.36132812 0.45410156 C95.36132812 22.89410156 95.36132812 45.33410156 95.36132812 68.45410156 C69.14799296 68.57442799 69.14799296 68.57442799 57.97460938 68.60058594 C50.35035947 68.61851958 42.72621765 68.63973587 35.10205078 68.68041992 C28.95531657 68.71301485 22.80869827 68.730955 16.66188431 68.73873329 C14.31672974 68.74427651 11.97158152 68.755101 9.62647629 68.77129173 C6.34182778 68.79306731 3.05765829 68.79606837 -0.22705078 68.79467773 C-1.19665741 68.80546356 -2.16626404 68.81624939 -3.16525269 68.82736206 C-9.37175821 68.79892721 -13.47273033 67.88567735 -18.51156616 64.01564026 C-23.31264699 58.86337736 -23.4919471 54.32625339 -23.36523438 47.48144531 C-23.36623138 46.44016983 -23.36722839 45.39889435 -23.36825562 44.32606506 C-23.36359117 42.13323296 -23.34423418 39.94038847 -23.31103516 37.74780273 C-23.26376605 34.39827464 -23.26993278 31.05192639 -23.28320312 27.70214844 C-23.27205051 25.56606182 -23.25783132 23.42998856 -23.24023438 21.29394531 C-23.24205719 20.296931 -23.24388 19.29991669 -23.24575806 18.27268982 C-23.12976913 12.56604057 -22.76061063 8.76035465 -18.63867188 4.45410156 C-12.63682101 0.33174408 -7.11571409 -0.10632805 0 0 Z " fill="#B3B3B3" transform="translate(22.638671875,657.5458984375)"/>
<path d="M0 0 C22.44 0 44.88 0 68 0 C68.16043524 26.13311755 68.16043524 26.13311755 68.1953125 37.2890625 C68.21920601 44.89562161 68.24744553 52.50198777 68.30175781 60.10839844 C68.34528003 66.24218356 68.36915093 72.37576169 68.37950897 78.50968933 C68.38688881 80.84762326 68.4012999 83.18554611 68.42292023 85.52339172 C68.45203804 88.80295117 68.45595237 92.08165981 68.45410156 95.36132812 C68.46848267 96.3237442 68.48286377 97.28616028 68.49768066 98.27774048 C68.46073813 104.34382582 67.47336786 108.94467886 64 114 C58.949558 118.82583956 53.81834636 118.62796088 47.1953125 118.63671875 C46.15736542 118.64766068 45.11941833 118.6586026 44.05001831 118.6698761 C41.85973055 118.68570601 39.66934389 118.69094782 37.47900391 118.6862793 C34.14186873 118.68749386 30.80911976 118.74728355 27.47265625 118.81054688 C25.33855234 118.81868971 23.20443178 118.82336101 21.0703125 118.82421875 C20.0804837 118.84779953 19.09065491 118.87138031 18.0708313 118.89567566 C11.68308129 118.81162542 8.25330897 117.43077031 3.55612183 113.08821106 C-0.62536358 107.47693827 -0.27709172 101.36284844 -0.22705078 94.68017578 C-0.22734283 93.65517471 -0.22763489 92.63017365 -0.22793579 91.57411194 C-0.22654629 88.19775832 -0.21100274 84.82162741 -0.1953125 81.4453125 C-0.19158103 79.09976319 -0.18873469 76.75421232 -0.18673706 74.40866089 C-0.17911121 68.24373042 -0.15947161 62.07889461 -0.1373291 55.91400146 C-0.11324542 48.51256262 -0.10408471 41.11109208 -0.09242249 33.70962524 C-0.07304672 22.47301772 -0.03471664 11.23661778 0 0 Z " fill="#B3B3B3" transform="translate(506,962)"/>
<path d="M0 0 C22.44 0 44.88 0 68 0 C68.16043524 25.88355162 68.16043524 25.88355162 68.1953125 36.93359375 C68.21920533 44.46772558 68.24744297 52.00166259 68.30175781 59.53564453 C68.34528241 65.61107516 68.36915142 71.6862968 68.37950897 77.76187134 C68.38688838 80.0774769 68.40129865 82.39307128 68.42292023 84.70858765 C68.45204125 87.95701641 68.45595225 91.20458629 68.45410156 94.453125 C68.46848267 95.40619034 68.48286377 96.35925568 68.49768066 97.34120178 C68.45040715 105.03133023 66.46825376 110.15686614 61.4296875 115.96069336 C56.61458818 118.8237717 52.63153828 118.70190204 47.125 118.62890625 C46.08230957 118.63131821 45.03961914 118.63373016 43.96533203 118.63621521 C41.76656277 118.63523817 39.56776848 118.62187896 37.36914062 118.59692383 C34.01086542 118.56261102 30.65522245 118.57627508 27.296875 118.59570312 C25.15623884 118.58880437 23.01560945 118.57913173 20.875 118.56640625 C19.87484863 118.57136612 18.87469727 118.57632599 17.84423828 118.58143616 C11.92709801 118.48187376 8.51104757 117.93132727 4 114 C0.84143627 109.64336038 -0.12660867 105.84484453 -0.12025452 100.53277588 C-0.12162918 99.64379105 -0.12300385 98.75480621 -0.12442017 97.83888245 C-0.11902725 96.38771278 -0.11902725 96.38771278 -0.11352539 94.90722656 C-0.11367142 93.88251755 -0.11381744 92.85780853 -0.1139679 91.80204773 C-0.11327121 88.41488529 -0.10549015 85.02777783 -0.09765625 81.640625 C-0.09579121 79.29221629 -0.09436771 76.94380719 -0.09336853 74.59539795 C-0.08955016 68.41403123 -0.07972564 62.232688 -0.06866455 56.05133057 C-0.05663747 48.63490789 -0.05204495 41.21847736 -0.04621124 33.80204773 C-0.03651356 22.53468215 -0.01735221 11.26736811 0 0 Z " fill="#B3B3B3" transform="translate(810,962)"/>
<path d="M0 0 C22.44 0 44.88 0 68 0 C68.16043524 25.88355162 68.16043524 25.88355162 68.1953125 36.93359375 C68.21920533 44.46772558 68.24744297 52.00166259 68.30175781 59.53564453 C68.34528241 65.61107516 68.36915142 71.6862968 68.37950897 77.76187134 C68.38688838 80.0774769 68.40129865 82.39307128 68.42292023 84.70858765 C68.45204125 87.95701641 68.45595225 91.20458629 68.45410156 94.453125 C68.46848267 95.40619034 68.48286377 96.35925568 68.49768066 97.34120178 C68.45040715 105.03133023 66.46825376 110.15686614 61.4296875 115.96069336 C56.61458818 118.8237717 52.63153828 118.70190204 47.125 118.62890625 C46.08230957 118.63131821 45.03961914 118.63373016 43.96533203 118.63621521 C41.76656277 118.63523817 39.56776848 118.62187896 37.36914062 118.59692383 C34.01086542 118.56261102 30.65522245 118.57627508 27.296875 118.59570312 C25.15623884 118.58880437 23.01560945 118.57913173 20.875 118.56640625 C19.87484863 118.57136612 18.87469727 118.57632599 17.84423828 118.58143616 C12.1238888 118.48518498 8.31493883 118.13747222 4 114 C-0.12161259 107.99727694 -0.56043863 102.47764563 -0.45410156 95.36132812 C-0.45468567 94.32628143 -0.45526978 93.29123474 -0.45587158 92.224823 C-0.45309988 88.82661615 -0.42205009 85.42930235 -0.390625 82.03125 C-0.38315939 79.66614257 -0.37746797 77.30102893 -0.37347412 74.93591309 C-0.35824317 68.72813672 -0.31898271 62.52073807 -0.2746582 56.31311035 C-0.22643397 48.85578211 -0.20815945 41.39832718 -0.18484497 33.94088745 C-0.14613077 22.62699606 -0.06945798 11.31393252 0 0 Z " fill="#B3B3B3" transform="translate(658,962)"/>
<path d="M0 0 C1.03460861 -0.00029205 2.06921722 -0.00058411 3.13517761 -0.00088501 C6.54943271 0.00050654 9.96346865 0.01605974 13.37768555 0.03173828 C15.74708436 0.03546903 18.11648471 0.03831571 20.48588562 0.04031372 C26.71823394 0.0479453 32.95048885 0.06758982 39.18280029 0.08972168 C46.6626416 0.11378986 54.14251416 0.12296335 61.62238312 0.1346283 C72.98228845 0.15401437 84.34198888 0.19234046 95.7019043 0.22705078 C95.7019043 22.66705078 95.7019043 45.10705078 95.7019043 68.22705078 C69.48856913 68.34737721 69.48856913 68.34737721 58.31518555 68.37353516 C50.69093564 68.3914688 43.06679382 68.41268509 35.44262695 68.45336914 C29.29589274 68.48596407 23.14927444 68.50390422 17.00246048 68.51168251 C14.65730591 68.51722573 12.31215769 68.52805022 9.96705246 68.54424095 C6.68240395 68.56601653 3.39823447 68.56901759 0.11352539 68.56762695 C-0.85608124 68.57841278 -1.82568787 68.58919861 -2.82467651 68.60031128 C-9.66371966 68.56897848 -13.87596788 67.38005329 -19.1105957 62.72705078 C-22.01502196 59.40770649 -22.42263656 56.95831421 -22.52270508 52.69897461 C-22.54522339 51.78404739 -22.5677417 50.86912018 -22.59094238 49.9264679 C-22.6621989 45.73760559 -22.71947716 41.54891483 -22.75805664 37.35961914 C-22.78464406 35.15497083 -22.82554737 32.95044645 -22.88110352 30.74633789 C-22.96047298 27.55841079 -22.99340565 24.37285406 -23.0168457 21.18408203 C-23.04983765 20.20671585 -23.08282959 19.22934967 -23.11682129 18.22236633 C-23.09821168 11.80520912 -21.70101982 8.46124822 -17.2923584 3.78715515 C-11.91837713 -0.41689063 -6.53984619 -0.04831999 0 0 Z " fill="#B3B3B3" transform="translate(22.298095703125,505.77294921875)"/>
<path d="M0 0 C25.80333401 -0.20054405 25.80333401 -0.20054405 36.8359375 -0.24414062 C44.35239396 -0.27398391 51.86854471 -0.30921873 59.38476562 -0.37719727 C65.44725003 -0.43168224 71.50940642 -0.46145567 77.57211685 -0.47438622 C79.88050624 -0.48359641 82.18887848 -0.50158176 84.49712753 -0.52865028 C87.74049873 -0.56515853 90.9825293 -0.56993609 94.22607422 -0.56762695 C95.17194901 -0.58560333 96.11782379 -0.60357971 97.09236145 -0.62210083 C104.01401451 -0.56907697 109.16028308 1.27866099 115 5 C119.18491996 9.28008724 118.48504416 15.07997722 118.50390625 20.7421875 C118.51389145 21.7839212 118.52387665 22.82565491 118.53416443 23.8989563 C118.54933007 26.09942664 118.5563907 28.29996574 118.5559082 30.50048828 C118.56246476 33.8569575 118.61695187 37.21046077 118.67382812 40.56640625 C118.68263184 42.70832326 118.68858495 44.85025426 118.69140625 46.9921875 C118.7129628 47.99031464 118.73451935 48.98844177 118.75672913 50.01681519 C118.70012188 55.80841914 117.90754566 59.24025776 113.9717865 63.56277466 C107.69913709 68.13487752 102.09052382 68.42540375 94.56665039 68.34057617 C93.5415033 68.34101425 92.5163562 68.34145233 91.46014404 68.34190369 C88.08911756 68.33982229 84.7185953 68.31652136 81.34765625 68.29296875 C79.00353772 68.2873705 76.65941566 68.28310148 74.31529236 68.28010559 C68.15854122 68.26867492 62.00200385 68.23922277 55.84533691 68.20599365 C48.45140754 68.16984598 41.05740653 68.15612318 33.663414 68.13863373 C22.44212752 68.10958466 11.22130969 68.05208447 0 68 C0 45.56 0 23.12 0 0 Z " fill="#B3B3B3" transform="translate(962,658)"/>
<path d="M0 0 C22.44 0 44.88 0 68 0 C68.12032643 25.92366043 68.12032643 25.92366043 68.14648438 36.98242188 C68.16441076 44.52537372 68.18560756 52.06821621 68.22631836 59.61108398 C68.25893815 65.69298437 68.27685869 71.77476746 68.28463173 77.85674858 C68.29017049 80.17595707 68.30098631 82.49515921 68.31719017 84.8143177 C68.3389988 88.06523589 68.34196542 91.3156707 68.34057617 94.56665039 C68.351362 95.523311 68.36214783 96.47997162 68.3732605 97.46562195 C68.34051013 104.55817692 67.2681104 109.32479286 62.5625 114.875 C58.95638018 117.86544083 56.02089972 118.1162348 51.43432617 118.20874023 C50.53626755 118.22803085 49.63820892 118.24732147 48.7129364 118.26719666 C44.61848369 118.32524471 40.52419815 118.37419014 36.42944336 118.4050293 C34.2733561 118.42662427 32.11735685 118.46074461 29.96166992 118.50756836 C26.84254067 118.57464384 23.72521791 118.60203809 20.60546875 118.62109375 C19.64795212 118.64892441 18.69043549 118.67675507 17.7039032 118.70542908 C12.00166622 118.68799588 8.70936117 117.82935761 4.45137024 113.97425842 C-0.14761342 107.71838933 -0.42536192 102.08681399 -0.34057617 94.56665039 C-0.34101425 93.5415033 -0.34145233 92.5163562 -0.34190369 91.46014404 C-0.33982229 88.08911756 -0.31652136 84.7185953 -0.29296875 81.34765625 C-0.2873705 79.00353772 -0.28310148 76.65941566 -0.28010559 74.31529236 C-0.26867492 68.15854122 -0.23922277 62.00200385 -0.20599365 55.84533691 C-0.16984598 48.45140754 -0.15612318 41.05740653 -0.13863373 33.663414 C-0.10958466 22.44212752 -0.05208447 11.22130969 0 0 Z " fill="#B3B3B3" transform="translate(354,962)"/>
<path d="M0 0 C25.88355162 -0.16043524 25.88355162 -0.16043524 36.93359375 -0.1953125 C44.46772558 -0.21920533 52.00166259 -0.24744297 59.53564453 -0.30175781 C65.61107516 -0.34528241 71.6862968 -0.36915142 77.76187134 -0.37950897 C80.0774769 -0.38688838 82.39307128 -0.40129865 84.70858765 -0.42292023 C87.95701641 -0.45204125 91.20458629 -0.45595225 94.453125 -0.45410156 C95.40619034 -0.46848267 96.35925568 -0.48286377 97.34120178 -0.49768066 C105.03503809 -0.45038435 110.16452745 1.52924174 115.96289062 6.58178711 C118.80467745 11.35022639 118.68486642 15.2372099 118.59375 20.69140625 C118.59379028 21.71427231 118.59383057 22.73713837 118.59387207 23.79100037 C118.58852509 25.94691128 118.57097778 28.10282224 118.54199219 30.25854492 C118.50009365 33.55513136 118.50093032 36.84967619 118.5078125 40.14648438 C118.49732084 42.24480584 118.48438287 44.34311679 118.46875 46.44140625 C118.46844788 47.91656456 118.46844788 47.91656456 118.46813965 49.42152405 C118.38201679 54.40768334 118.29097214 57.98205648 115 62 C108.59796943 67.8966071 103.14271499 68.28933635 94.79370117 68.22705078 C93.25641861 68.22748886 93.25641861 68.22748886 91.68807983 68.22793579 C88.30628951 68.22654434 84.92472051 68.21099157 81.54296875 68.1953125 C79.1959902 68.19158172 76.84901009 68.18873506 74.50202942 68.18673706 C68.32886444 68.17910574 62.15579377 68.15946144 55.98266602 68.1373291 C48.57374266 68.11326023 41.16478776 68.10408731 33.75583649 68.09242249 C22.50382543 68.07303687 11.25202125 68.03471061 0 68 C0 45.56 0 23.12 0 0 Z " fill="#B3B3B3" transform="translate(962,506)"/>
<path d="M0 0 C22.11 0 44.22 0 67 0 C67.16043524 26.13311755 67.16043524 26.13311755 67.1953125 37.2890625 C67.21920601 44.89562161 67.24744553 52.50198777 67.30175781 60.10839844 C67.34528003 66.24218356 67.36915093 72.37576169 67.37950897 78.50968933 C67.38688881 80.84762326 67.4012999 83.18554611 67.42292023 85.52339172 C67.45203804 88.80295117 67.45595237 92.08165981 67.45410156 95.36132812 C67.46848267 96.3237442 67.48286377 97.28616028 67.49768066 98.27774048 C67.46073542 104.34427079 66.47272031 108.94397332 63 114 C57.93991257 118.84350781 52.79678138 118.61369607 46.16015625 118.6015625 C45.11983749 118.61013275 44.07951874 118.618703 43.00767517 118.62753296 C40.81317041 118.63899058 38.61858972 118.64004136 36.42407227 118.63134766 C33.07631245 118.62502608 29.73208882 118.67197278 26.38476562 118.72265625 C24.24740027 118.72720271 22.11002546 118.72860901 19.97265625 118.7265625 C18.48017113 118.75419174 18.48017113 118.75419174 16.95753479 118.78237915 C11.06551619 118.7043851 7.68784942 117.83250158 3.34080505 113.77523804 C-0.67859698 108.45351333 -0.27383285 103.00264159 -0.22705078 96.61010742 C-0.22734283 95.56574524 -0.22763489 94.52138306 -0.22793579 93.44537354 C-0.22654415 89.99865365 -0.21099052 86.55215081 -0.1953125 83.10546875 C-0.19158179 80.71364968 -0.18873509 78.32182908 -0.18673706 75.93000793 C-0.17910523 69.63847627 -0.15946049 63.34703713 -0.1373291 57.05554199 C-0.11326161 49.50478273 -0.10408756 41.95399252 -0.09242249 34.40320587 C-0.07303596 22.93540626 -0.03471003 11.4678096 0 0 Z " fill="#B3B3B3" transform="translate(203,962)"/>
<path d="M0 0 C0.91422729 -0.00274933 1.82845459 -0.00549866 2.77038574 -0.0083313 C3.7658844 -0.00114075 4.76138306 0.0060498 5.78704834 0.01345825 C6.84101807 0.0131662 7.89498779 0.01287415 8.980896 0.01257324 C12.46551743 0.01396686 15.94992519 0.02952982 19.43450928 0.04519653 C21.85017785 0.04892654 24.26584793 0.05177357 26.68151855 0.05377197 C33.04046809 0.06140936 39.3993263 0.08105885 45.75823975 0.10317993 C53.38740146 0.12723241 61.0165937 0.13641883 68.64578247 0.14808655 C80.23687992 0.16748308 91.827777 0.20580512 103.41888428 0.24050903 C103.41888428 22.35050903 103.41888428 44.46050903 103.41888428 67.24050903 C77.0362008 67.44105308 77.0362008 67.44105308 65.77435303 67.48464966 C58.09530321 67.51451764 50.41655202 67.54981925 42.73773193 67.6177063 C36.54558035 67.67210625 30.35374909 67.70194689 24.16137695 67.71489525 C21.80109618 67.72412064 19.44083257 67.74213579 17.08068848 67.76915932 C13.76986052 67.80555416 10.46034943 67.8104498 7.14935303 67.80813599 C6.17758621 67.82611237 5.2058194 67.84408875 4.2046051 67.86260986 C-2.29971737 67.81355278 -6.52503552 66.38517826 -11.58111572 62.24050903 C-15.67918806 57.78309933 -15.06589721 52.23938541 -15.08502197 46.49832153 C-15.09500717 45.45658783 -15.10499237 44.41485413 -15.11528015 43.34155273 C-15.1304458 41.1410824 -15.13750643 38.9405433 -15.13702393 36.74002075 C-15.14358048 33.38355153 -15.19806759 30.03004827 -15.25494385 26.67410278 C-15.26374756 24.53218578 -15.26970068 22.39025477 -15.27252197 20.24832153 C-15.29407852 19.2501944 -15.31563507 18.25206726 -15.33784485 17.22369385 C-15.27967051 11.2717576 -14.41556119 7.92465272 -10.25993347 3.58007812 C-6.93922237 0.9304028 -4.23901658 -0.00985818 0 0 Z " fill="#B3B3B3" transform="translate(14.58111572265625,354.7594909667969)"/>
<path d="M0 0 C0.91422729 -0.00274933 1.82845459 -0.00549866 2.77038574 -0.0083313 C3.7658844 -0.00114075 4.76138306 0.0060498 5.78704834 0.01345825 C6.84101807 0.0131662 7.89498779 0.01287415 8.980896 0.01257324 C12.46551743 0.01396686 15.94992519 0.02952982 19.43450928 0.04519653 C21.85017785 0.04892654 24.26584793 0.05177357 26.68151855 0.05377197 C33.04046809 0.06140936 39.3993263 0.08105885 45.75823975 0.10317993 C53.38740146 0.12723241 61.0165937 0.13641883 68.64578247 0.14808655 C80.23687992 0.16748308 91.827777 0.20580512 103.41888428 0.24050903 C103.41888428 22.35050903 103.41888428 44.46050903 103.41888428 67.24050903 C77.0362008 67.44105308 77.0362008 67.44105308 65.77435303 67.48464966 C58.09530321 67.51451764 50.41655202 67.54981925 42.73773193 67.6177063 C36.54558035 67.67210625 30.35374909 67.70194689 24.16137695 67.71489525 C21.80109618 67.72412064 19.44083257 67.74213579 17.08068848 67.76915932 C13.76986052 67.80555416 10.46034943 67.8104498 7.14935303 67.80813599 C6.17758621 67.82611237 5.2058194 67.84408875 4.2046051 67.86260986 C-2.29971737 67.81355278 -6.52503552 66.38517826 -11.58111572 62.24050903 C-15.67918806 57.78309933 -15.06589721 52.23938541 -15.08502197 46.49832153 C-15.09500717 45.45658783 -15.10499237 44.41485413 -15.11528015 43.34155273 C-15.1304458 41.1410824 -15.13750643 38.9405433 -15.13702393 36.74002075 C-15.14358048 33.38355153 -15.19806759 30.03004827 -15.25494385 26.67410278 C-15.26374756 24.53218578 -15.26970068 22.39025477 -15.27252197 20.24832153 C-15.29407852 19.2501944 -15.31563507 18.25206726 -15.33784485 17.22369385 C-15.27967051 11.2717576 -14.41556119 7.92465272 -10.25993347 3.58007812 C-6.93922237 0.9304028 -4.23901658 -0.00985818 0 0 Z " fill="#B3B3B3" transform="translate(14.58111572265625,202.75949096679688)"/>
<path d="M0 0 C1.33347725 -0.002062 1.33347725 -0.002062 2.69389343 -0.00416565 C4.1450631 0.00122726 4.1450631 0.00122726 5.62554932 0.00672913 C6.65025833 0.0065831 7.67496735 0.00643707 8.73072815 0.00628662 C12.11789059 0.00698331 15.50499804 0.01476437 18.89215088 0.02259827 C21.24055959 0.02446331 23.58896869 0.02588681 25.93737793 0.02688599 C32.11874465 0.03070436 38.30008788 0.04052887 44.48144531 0.05158997 C51.89786799 0.06361705 59.31429851 0.06820957 66.73072815 0.07404327 C77.99809373 0.08374095 89.26540777 0.10290231 100.53277588 0.12025452 C100.53277588 22.23025452 100.53277588 44.34025452 100.53277588 67.12025452 C73.82030886 67.28068975 73.82030886 67.28068975 62.43511963 67.31556702 C54.66596553 67.33947969 46.89699998 67.36777073 39.12799072 67.42201233 C32.86453815 67.46546885 26.60128777 67.4893916 20.33769608 67.49976349 C17.9478703 67.50715511 15.55805561 67.52158912 13.16831589 67.54317474 C9.82129744 67.57220515 6.47511479 67.57621053 3.12799072 67.57435608 C2.13968262 67.58873718 1.15137451 67.60311829 0.13311768 67.61793518 C-6.90988098 67.57570179 -9.97015215 66.13497173 -15.27972412 61.55775452 C-17.56341644 58.79328487 -17.60262473 55.98428399 -17.64422607 52.56044006 C-17.65706131 51.63905746 -17.66989655 50.71767487 -17.68312073 49.76837158 C-17.69050766 48.77461014 -17.69789459 47.78084869 -17.70550537 46.75697327 C-17.71357712 45.73223404 -17.72164886 44.70749481 -17.72996521 43.65170288 C-17.74379854 41.48213896 -17.75452406 39.31255335 -17.76239014 37.14295959 C-17.77960365 33.83093393 -17.82349736 30.51990633 -17.86761475 27.20814514 C-17.87774187 25.09942852 -17.88625791 22.99070341 -17.89300537 20.88197327 C-17.91051346 19.89428452 -17.92802155 18.90659576 -17.94606018 17.88897705 C-17.92745834 11.9703593 -17.40242204 8.63019073 -13.46722412 4.12025452 C-9.1105845 0.96169079 -5.31206865 -0.00635415 0 0 Z " fill="#B3B3B3" transform="translate(17.46722412109375,809.8797454833984)"/>
<path d="M0 0 C26.46290109 -0.12032643 26.46290109 -0.12032643 37.7421875 -0.14648438 C45.43886519 -0.1644184 53.13543581 -0.18563571 60.83203125 -0.22631836 C67.03712004 -0.25891199 73.24209402 -0.27685317 79.44726181 -0.28463173 C81.8147449 -0.29017519 84.1822217 -0.30100012 86.54965591 -0.31719017 C89.86543615 -0.338964 93.18074182 -0.34196688 96.49658203 -0.34057617 C97.96501808 -0.35675491 97.96501808 -0.35675491 99.46311951 -0.3732605 C106.34350603 -0.34203021 110.55918772 0.84140992 115.83569336 5.5078125 C119.13865506 9.81492413 118.69800784 14.66222585 118.62890625 19.875 C118.63131821 20.91769043 118.63373016 21.96038086 118.63621521 23.03466797 C118.63523817 25.23343723 118.62187896 27.43223152 118.59692383 29.63085938 C118.56261102 32.98913458 118.57627508 36.34477755 118.59570312 39.703125 C118.58880437 41.84376116 118.57913173 43.98439055 118.56640625 46.125 C118.57384605 47.62522705 118.57384605 47.62522705 118.58143616 49.15576172 C118.48187376 55.07290199 117.93132727 58.48895243 114 63 C109.64336038 66.15856373 105.84484453 67.12660867 100.53277588 67.12025452 C99.19929863 67.12231651 99.19929863 67.12231651 97.83888245 67.12442017 C96.871436 67.12082489 95.90398956 67.11722961 94.90722656 67.11352539 C93.88251755 67.11367142 92.85780853 67.11381744 91.80204773 67.1139679 C88.41488529 67.11327121 85.02777783 67.10549015 81.640625 67.09765625 C79.29221629 67.09579121 76.94380719 67.09436771 74.59539795 67.09336853 C68.41403123 67.08955016 62.232688 67.07972564 56.05133057 67.06866455 C48.63490789 67.05663747 41.21847736 67.05204495 33.80204773 67.04621124 C22.53468215 67.03651356 11.26736811 67.01735221 0 67 C0 44.89 0 22.78 0 0 Z " fill="#B3B3B3" transform="translate(962,355)"/>
<path d="M0 0 C26.46290109 -0.12032643 26.46290109 -0.12032643 37.7421875 -0.14648438 C45.43886519 -0.1644184 53.13543581 -0.18563571 60.83203125 -0.22631836 C67.03712004 -0.25891199 73.24209402 -0.27685317 79.44726181 -0.28463173 C81.8147449 -0.29017519 84.1822217 -0.30100012 86.54965591 -0.31719017 C89.86543615 -0.338964 93.18074182 -0.34196688 96.49658203 -0.34057617 C97.96501808 -0.35675491 97.96501808 -0.35675491 99.46311951 -0.3732605 C106.34350603 -0.34203021 110.55918772 0.84140992 115.83569336 5.5078125 C119.13865506 9.81492413 118.69800784 14.66222585 118.62890625 19.875 C118.63131821 20.91769043 118.63373016 21.96038086 118.63621521 23.03466797 C118.63523817 25.23343723 118.62187896 27.43223152 118.59692383 29.63085938 C118.56261102 32.98913458 118.57627508 36.34477755 118.59570312 39.703125 C118.58880437 41.84376116 118.57913173 43.98439055 118.56640625 46.125 C118.57384605 47.62522705 118.57384605 47.62522705 118.58143616 49.15576172 C118.48187376 55.07290199 117.93132727 58.48895243 114 63 C109.64336038 66.15856373 105.84484453 67.12660867 100.53277588 67.12025452 C99.19929863 67.12231651 99.19929863 67.12231651 97.83888245 67.12442017 C96.871436 67.12082489 95.90398956 67.11722961 94.90722656 67.11352539 C93.88251755 67.11367142 92.85780853 67.11381744 91.80204773 67.1139679 C88.41488529 67.11327121 85.02777783 67.10549015 81.640625 67.09765625 C79.29221629 67.09579121 76.94380719 67.09436771 74.59539795 67.09336853 C68.41403123 67.08955016 62.232688 67.07972564 56.05133057 67.06866455 C48.63490789 67.05663747 41.21847736 67.05204495 33.80204773 67.04621124 C22.53468215 67.03651356 11.26736811 67.01735221 0 67 C0 44.89 0 22.78 0 0 Z " fill="#B3B3B3" transform="translate(962,203)"/>
<path d="M0 0 C25.92366043 -0.12032643 25.92366043 -0.12032643 36.98242188 -0.14648438 C44.52537372 -0.16441076 52.06821621 -0.18560756 59.61108398 -0.22631836 C65.69298437 -0.25893815 71.77476746 -0.27685869 77.85674858 -0.28463173 C80.17595707 -0.29017049 82.49515921 -0.30098631 84.8143177 -0.31719017 C88.06523589 -0.3389988 91.3156707 -0.34196542 94.56665039 -0.34057617 C96.00164131 -0.35675491 96.00164131 -0.35675491 97.46562195 -0.3732605 C104.58736833 -0.34037533 109.40416124 0.68631763 114.875 5.5625 C117.67687308 8.77641324 118.12666546 10.29217653 118.17700195 14.44628906 C118.19625481 15.82847626 118.19625481 15.82847626 118.21589661 17.23858643 C118.22328354 18.23750916 118.23067047 19.23643188 118.23828125 20.265625 C118.246353 21.29177917 118.25442474 22.31793335 118.26274109 23.37518311 C118.27658889 25.55072334 118.28730792 27.72628536 118.29516602 29.90185547 C118.31235893 33.22275242 118.35623722 36.54264885 118.40039062 39.86328125 C118.41051919 41.97655518 118.41903478 44.08983757 118.42578125 46.203125 C118.44328934 47.19395081 118.46079742 48.18477661 118.47883606 49.20562744 C118.46023837 55.14344518 117.91596525 58.45782593 114 63 C110.38373239 66.17793214 107.34167476 67.12584018 102.57710266 67.12025452 C101.67266418 67.12162918 100.76822571 67.12300385 99.83638 67.12442017 C98.84663681 67.12082489 97.85689362 67.11722961 96.8371582 67.11352539 C95.79308807 67.11367142 94.74901794 67.11381744 93.67330933 67.1139679 C90.21577897 67.11327018 86.75830222 67.10548431 83.30078125 67.09765625 C80.9061028 67.09579157 78.51142396 67.0943679 76.116745 67.09336853 C69.80877635 67.08954728 63.50083066 67.07972031 57.19287109 67.06866455 C49.62712834 67.05664524 42.06137792 67.05204632 34.49562836 67.04621124 C22.99706959 67.03650838 11.49856123 67.01734904 0 67 C0 44.89 0 22.78 0 0 Z " fill="#B3B3B3" transform="translate(962,810)"/>
<path d="M0 0 C1.03794708 -0.00952698 2.07589417 -0.01905396 3.14529419 -0.02886963 C5.33559875 -0.04100702 7.52600826 -0.04022219 9.71630859 -0.02734375 C13.05363582 -0.01568327 16.38588306 -0.06788539 19.72265625 -0.125 C21.8567673 -0.12888614 23.99088918 -0.12900966 26.125 -0.125 C27.60974319 -0.15566559 27.60974319 -0.15566559 29.1244812 -0.18695068 C35.50649092 -0.08108586 38.94498247 1.30999884 43.63919067 5.6473999 C47.69569413 11.0877334 47.47445674 16.92904951 47.42236328 23.41162109 C47.42265533 24.36834717 47.42294739 25.32507324 47.42324829 26.31079102 C47.42185962 29.45989178 47.40632007 32.60875328 47.390625 35.7578125 C47.38689323 37.94641999 47.38404703 40.13502916 47.38204956 42.32363892 C47.37442604 48.0742863 47.35478848 53.82483211 47.3326416 59.57543945 C47.30855157 66.48045248 47.2993961 73.38549954 47.28773499 80.2905426 C47.26836343 90.77189064 47.23003176 101.25301595 47.1953125 111.734375 C24.7553125 111.734375 2.3153125 111.734375 -20.8046875 111.734375 C-20.96512274 87.59778485 -20.96512274 87.59778485 -21 77.2890625 C-21.02388763 70.26192099 -21.0521111 63.23498847 -21.10644531 56.20800781 C-21.14998797 50.54105848 -21.17384267 44.87433336 -21.18419647 39.20722961 C-21.19157267 37.04792249 -21.20597667 34.88862727 -21.22760773 32.72941589 C-21.25675309 29.69890063 -21.26063878 26.66930532 -21.25878906 23.63867188 C-21.27317017 22.75106171 -21.28755127 21.86345154 -21.30236816 20.94894409 C-21.25326058 13.48647969 -19.12394275 8.39538282 -14.22998047 2.78027344 C-9.44683732 -0.07665739 -5.4802816 -0.02121278 0 0 Z " fill="#B3B3B3" transform="translate(526.8046875,-0.734375)"/>
<path d="M0 0 C2.44440953 2.05845013 4.67000225 4.36531475 6.9296875 6.625 C2.9696875 11.575 -0.9903125 16.525 -5.0703125 21.625 C-7.19741649 20.561448 -9.32310512 19.49484934 -11.4375 18.40625 C-20.77763061 13.63434527 -28.90091891 10.83998099 -39.51953125 13.16015625 C-42.37436405 14.12583907 -44.73114254 15.34942441 -47.0703125 17.25 C-48.66735203 21.04296888 -48.68731399 24.58182553 -48.0703125 28.625 C-43.35032102 38.06498295 -26.67095911 41.76896956 -17.52734375 45.43164062 C-6.00713777 50.18119923 4.0225727 56.67310654 9.3671875 68.375 C12.52679895 77.2545977 11.88131801 87.09849524 7.9296875 95.625 C0.73644204 107.96833905 -8.48530407 113.3662051 -21.97192383 117.15991211 C-37.68105877 120.64169245 -55.56467586 116.7929659 -69.0703125 108.625 C-75.65239345 104.29936501 -75.65239345 104.29936501 -78.0703125 101.625 C-78.0703125 97.40038349 -78.02951105 97.07909837 -75.4453125 94.171875 C-74.90390625 93.553125 -74.3625 92.934375 -73.8046875 92.296875 C-73.23234375 91.66265625 -72.66 91.0284375 -72.0703125 90.375 C-71.21179688 89.40046875 -71.21179688 89.40046875 -70.3359375 88.40625 C-68.9228265 86.8047242 -67.4976983 85.21381634 -66.0703125 83.625 C-62.73376849 85.26039527 -59.61346711 87.11897508 -56.4453125 89.0625 C-46.88460138 94.61164309 -38.20106583 96.91696244 -27.0703125 95.625 C-22.15007166 94.12586412 -18.77544548 92.08004096 -16.0703125 87.625 C-15.56229735 85.21370749 -15.56229735 85.21370749 -15.6328125 82.6875 C-15.61347656 81.85347656 -15.59414063 81.01945313 -15.57421875 80.16015625 C-16.2837783 76.53413933 -17.36620858 75.19249243 -20.0703125 72.625 C-23.46030901 70.69705954 -26.98910361 69.16163385 -30.5703125 67.625 C-31.56264893 67.18494629 -32.55498535 66.74489258 -33.57739258 66.29150391 C-38.59679041 64.07755937 -43.6448998 61.98572831 -48.7578125 60 C-58.61148867 55.93340348 -66.00123498 50.02175935 -71.0703125 40.625 C-71.6890625 39.59375 -72.3078125 38.5625 -72.9453125 37.5 C-75.78235394 30.21203126 -75.12787175 20.51346826 -72.5703125 13.25 C-67.52117495 2.62209509 -58.51458334 -4.1356294 -47.6953125 -8.25 C-31.46332369 -12.49332306 -13.68476939 -9.67276873 0 0 Z " fill="#FBFBFB" transform="translate(356.0703125,492.375)"/>
<path d="M0 0 C5.12727751 4.16478858 9.27631395 9.45426281 11.2265625 15.80859375 C11.44187614 18.4622645 11.56042284 20.97148262 11.5390625 23.62109375 C11.53169067 24.69121704 11.53169067 24.69121704 11.52416992 25.78295898 C11.34321156 33.89824543 9.04030171 40.95391271 3.2265625 46.80859375 C-5.17078849 52.80859375 -5.17078849 52.80859375 -8.7734375 52.80859375 C-8.7734375 53.46859375 -8.7734375 54.12859375 -8.7734375 54.80859375 C-7.9690625 54.84984375 -7.1646875 54.89109375 -6.3359375 54.93359375 C1.31077714 56.81173419 7.97881032 62.20526991 12.2265625 68.80859375 C14.92955731 74.0920132 15.74836565 78.27905445 15.6640625 84.18359375 C15.65576416 84.93310303 15.64746582 85.6826123 15.63891602 86.45483398 C15.36518354 95.42566097 12.31558468 101.41866489 6.20703125 107.95703125 C0.34341768 113.4389895 -6.01363389 116.8403224 -13.7734375 118.80859375 C-14.48757813 118.99292969 -15.20171875 119.17726563 -15.9375 119.3671875 C-31.97128091 121.86280354 -47.11184956 119.73800515 -60.7734375 110.80859375 C-63.57306098 108.60256133 -66.21356853 106.28777918 -68.7734375 103.80859375 C-67.09420725 100.00725933 -64.65880916 96.83776673 -62.1484375 93.55859375 C-61.72820313 93.00429688 -61.30796875 92.45 -60.875 91.87890625 C-59.84405031 90.51992712 -58.80913839 89.1639554 -57.7734375 87.80859375 C-53.78171908 90.1546037 -50.01488726 92.71606692 -46.25 95.40625 C-38.72114837 99.66943255 -30.17917816 99.69101458 -21.7734375 98.80859375 C-17.18965725 97.20976022 -14.53751254 94.62997442 -11.2734375 91.12109375 C-8.95724039 86.00615847 -8.76074086 81.1441633 -10.3984375 75.75 C-12.84222328 70.67696255 -16.62739792 68.68505017 -21.7734375 66.80859375 C-28.69311288 64.58022371 -35.53062379 64.26126961 -42.7734375 63.80859375 C-42.7734375 57.86859375 -42.7734375 51.92859375 -42.7734375 45.80859375 C-39.9684375 45.41671875 -37.1634375 45.02484375 -34.2734375 44.62109375 C-24.67245569 43.15633016 -24.67245569 43.15633016 -16.7734375 37.80859375 C-13.37876898 33.14092454 -12.91723879 28.40307399 -13.7734375 22.80859375 C-15.14090718 18.58408922 -17.11866179 16.20659467 -20.9609375 13.87109375 C-28.59649376 11.74315184 -35.6254103 12.26512728 -42.7734375 15.80859375 C-45.92975835 17.97045735 -48.8780368 20.31019835 -51.7734375 22.80859375 C-55.37947548 20.08192293 -58.30054294 17.25567384 -61.1484375 13.74609375 C-61.85742188 12.88886719 -62.56640625 12.03164063 -63.296875 11.1484375 C-63.78414062 10.37628906 -64.27140625 9.60414063 -64.7734375 8.80859375 C-62.82625677 2.96705155 -55.01447294 -0.29169835 -49.7734375 -3.19140625 C-34.76675964 -10.57750551 -13.95408755 -9.11333731 0 0 Z " fill="#FBFBFB" transform="translate(687.7734375,490.19140625)"/>
<path d="M0 0 C6.50474312 5.8646883 10.96030208 14.32322536 11.67578125 23.0390625 C11.75069859 48.36112443 -0.59132178 66.76575967 -17.32421875 84.86328125 C-20.48442558 88.31321842 -23.54414316 91.85402076 -26.625 95.375 C-12.105 95.375 2.415 95.375 17.375 95.375 C17.375 102.305 17.375 109.235 17.375 116.375 C-9.685 116.375 -36.745 116.375 -64.625 116.375 C-64.625 101.375 -64.625 101.375 -61.87109375 97.375 C-60.63586719 96.33292278 -59.3636617 95.33348204 -58.0625 94.375 C-56.67836894 93.22188842 -55.29693671 92.06553101 -53.91796875 90.90625 C-53.20560059 90.32875 -52.49323242 89.75125 -51.75927734 89.15625 C-48.27790756 86.25072793 -45.07358731 83.08558719 -41.875 79.875 C-41.25222168 79.25052979 -40.62944336 78.62605957 -39.98779297 77.98266602 C-27.40582218 65.17003129 -13.25079866 48.50077946 -12.1875 29.8125 C-12.40281672 24.03996126 -14.45563481 18.54436519 -18.5625 14.4375 C-19.5834375 13.9115625 -19.5834375 13.9115625 -20.625 13.375 C-21.346875 12.983125 -22.06875 12.59125 -22.8125 12.1875 C-30.9666906 9.83184494 -36.56892986 11.76738647 -43.953125 15.703125 C-46.20859937 17.11444522 -47.85166631 18.36402224 -49.625 20.3125 C-50.615 21.3334375 -50.615 21.3334375 -51.625 22.375 C-55.79771141 22.21136426 -58.10789943 19.35934108 -60.9375 16.5625 C-61.84113281 15.68980469 -62.74476563 14.81710937 -63.67578125 13.91796875 C-65.625 11.375 -65.625 11.375 -65.73046875 9.328125 C-61.39640896 1.67077554 -50.7336637 -4.39298826 -42.59375 -7.3671875 C-28.13453763 -11.3057043 -11.90187 -9.23960961 0 0 Z " fill="#FBFBFB" transform="translate(784.625,491.625)"/>
<path d="M0 0 C31.35 0 62.7 0 95 0 C95 6.93 95 13.86 95 21 C83.45 21 71.9 21 60 21 C60 54.66 60 88.32 60 123 C51.75 123 43.5 123 35 123 C35 89.34 35 55.68 35 21 C23.45 21 11.9 21 0 21 C0 14.07 0 7.14 0 0 Z " fill="#F9F9F9" transform="translate(374,485)"/>
<path d="M0 0 C5.28021865 3.79373222 9.28522618 8.3815001 11.26171875 14.625 C12.13939258 22.50365342 11.91000242 29.97717531 7.26171875 36.625 C2.47812113 41.83606804 -2.92202322 46.1335793 -10.10546875 47.05859375 C-18.530651 47.06797591 -24.44064394 46.71384522 -30.66796875 40.7890625 C-37.23523628 33.67679352 -39.38942974 27.7954609 -39.14453125 18.1015625 C-38.20935364 10.09860025 -33.84577052 4.92949511 -27.6953125 0 C-19.52059693 -5.74351274 -8.39648443 -4.75935993 0 0 Z " fill="#FCFCFC" transform="translate(207.73828125,172.375)"/>
</svg>
